<?xml version="1.0" encoding="UTF-8"?>
<svg id="Layer_2" data-name="Layer 2" xmlns="http://www.w3.org/2000/svg" xmlns:xlink="http://www.w3.org/1999/xlink" viewBox="0 0 200.96 416.66">
  <defs>
    <style>
      .cls-1 {
        fill: #fff;
      }

      .cls-2 {
        fill: #387ef0;
      }

      .cls-3 {
        clip-path: url(#clippath);
      }

      .cls-4 {
        fill: none;
      }
    </style>
    <clipPath id="clippath">
      <rect class="cls-4" x="45.1" y="244.9" width="111" height="99"/>
    </clipPath>
  </defs>
  <g id="Layer_1-2" data-name="Layer 1">
    <path class="cls-2" d="M180.1,300.4c0,43.91-35.59,79.5-79.5,79.5s-79.5-35.59-79.5-79.5,35.59-79.5,79.5-79.5,79.5,35.59,79.5,79.5Z"/>
    <path d="M50.85,107.1c1.92,0,3.46,.54,4.62,1.62,1.18,1.06,1.77,2.51,1.77,4.35s-.59,3.3-1.77,4.38c-1.16,1.06-2.7,1.59-4.62,1.59h-4.47v7.86h-2.16v-19.8h6.63Zm-.33,9.9c1.52,0,2.64-.33,3.36-.99,.72-.68,1.08-1.66,1.08-2.94s-.36-2.26-1.08-2.94c-.72-.68-1.84-1.02-3.36-1.02h-4.14v7.89h4.14Zm12.87-12v18.15c0,.72,.11,1.26,.33,1.62s.64,.54,1.26,.54c.34,0,.62-.03,.84-.09s.51-.17,.87-.33l-.3,1.89c-.26,.14-.58,.24-.96,.3-.36,.08-.71,.12-1.05,.12-1.2,0-2.03-.37-2.49-1.11-.44-.74-.66-1.69-.66-2.85v-18.24h2.16Zm14.8,12.15c0-1.14-.3-2.03-.9-2.67-.6-.66-1.45-.99-2.55-.99-1,0-1.85,.24-2.55,.72-.7,.46-1.22,1.2-1.56,2.22l-1.77-1.08c.4-1.14,1.11-2.05,2.13-2.73,1.04-.68,2.31-1.02,3.81-1.02,1.06,0,2,.19,2.82,.57,.84,.36,1.5,.92,1.98,1.68,.5,.76,.75,1.72,.75,2.88v7.32c0,.82,.38,1.23,1.14,1.23,.16,0,.34,0,.54-.03,.2-.04,.37-.09,.51-.15l-.12,1.71c-.16,.08-.37,.15-.63,.21-.24,.06-.52,.09-.84,.09-.52,0-1-.1-1.44-.3-.42-.22-.76-.55-1.02-.99-.24-.46-.36-1.03-.36-1.71v-.42l.54,.06c-.22,.78-.61,1.43-1.17,1.95-.54,.5-1.17,.88-1.89,1.14-.7,.24-1.41,.36-2.13,.36-1.3,0-2.41-.33-3.33-.99-.92-.68-1.38-1.69-1.38-3.03,0-1.08,.34-1.98,1.02-2.7,.7-.74,1.72-1.25,3.06-1.53l5.73-1.2v1.8l-4.71,1.02c-.98,.2-1.71,.49-2.19,.87-.48,.38-.72,.92-.72,1.62s.24,1.23,.72,1.65c.5,.4,1.21,.6,2.13,.6,.54,0,1.07-.07,1.59-.21,.52-.16,.99-.4,1.41-.72s.75-.72,.99-1.2c.26-.5,.39-1.09,.39-1.77v-4.26Zm7.27,9.75v-15h1.89l.18,3.45-.33-.3c.42-1.2,1.11-2.07,2.07-2.61,.96-.56,2.02-.84,3.18-.84,1.02,0,1.94,.21,2.76,.63,.84,.42,1.51,1.05,2.01,1.89,.5,.82,.75,1.87,.75,3.15v9.63h-2.16v-8.88c0-1.66-.35-2.83-1.05-3.51-.7-.68-1.57-1.02-2.61-1.02-.72,0-1.43,.18-2.13,.54s-1.28,.93-1.74,1.71c-.44,.78-.66,1.8-.66,3.06v8.1h-2.16Zm17.84,0v-15h1.89l.18,3.45-.33-.3c.42-1.2,1.11-2.07,2.07-2.61,.96-.56,2.02-.84,3.18-.84,1.02,0,1.94,.21,2.76,.63,.84,.42,1.51,1.05,2.01,1.89,.5,.82,.75,1.87,.75,3.15v9.63h-2.16v-8.88c0-1.66-.35-2.83-1.05-3.51s-1.57-1.02-2.61-1.02c-.72,0-1.43,.18-2.13,.54-.7,.36-1.28,.93-1.74,1.71-.44,.78-.66,1.8-.66,3.06v8.1h-2.16Zm20-15v15h-2.16v-15h2.16Zm-.93-2.88c-.54,0-.98-.16-1.32-.48-.32-.34-.48-.78-.48-1.32s.16-.97,.48-1.29c.34-.34,.78-.51,1.32-.51s.97,.17,1.29,.51c.34,.32,.51,.75,.51,1.29s-.17,.98-.51,1.32c-.32,.32-.75,.48-1.29,.48Zm6.45,17.88v-15h1.89l.18,3.45-.33-.3c.42-1.2,1.11-2.07,2.07-2.61,.96-.56,2.02-.84,3.18-.84,1.02,0,1.94,.21,2.76,.63,.84,.42,1.51,1.05,2.01,1.89,.5,.82,.75,1.87,.75,3.15v9.63h-2.16v-8.88c0-1.66-.35-2.83-1.05-3.51-.7-.68-1.57-1.02-2.61-1.02-.72,0-1.43,.18-2.13,.54s-1.28,.93-1.74,1.71c-.44,.78-.66,1.8-.66,3.06v8.1h-2.16Zm29.9-17.76l.48,1.92h-.21c-.94,0-1.67,.21-2.19,.63-.5,.42-.75,1.07-.75,1.95l-1.29-.69c0-.78,.17-1.45,.51-2.01,.34-.58,.79-1.02,1.35-1.32,.58-.32,1.23-.48,1.95-.48h.15Zm-4.5,15.96c1.4,0,2.49,.33,3.27,.99,.78,.64,1.17,1.49,1.17,2.55,0,.96-.31,1.79-.93,2.49-.6,.7-1.43,1.24-2.49,1.62-1.04,.4-2.22,.6-3.54,.6-2.24,0-3.93-.4-5.07-1.2-1.12-.78-1.68-1.74-1.68-2.88,0-.8,.27-1.52,.81-2.16,.54-.62,1.4-.98,2.58-1.08l-.15,.42c-.66-.18-1.22-.49-1.68-.93-.46-.44-.69-1.06-.69-1.86s.28-1.44,.84-2.04c.58-.6,1.44-.96,2.58-1.08l1.56,.72h-.39c-.92,.08-1.6,.32-2.04,.72-.42,.38-.63,.83-.63,1.35,0,.58,.21,1.02,.63,1.32s.99,.45,1.71,.45h4.14Zm-2.49,6.48c1.1,0,2.02-.13,2.76-.39,.74-.24,1.3-.57,1.68-.99,.38-.4,.57-.84,.57-1.32,0-.6-.24-1.08-.72-1.44-.46-.34-1.23-.51-2.31-.51h-4.35c-.68,0-1.26,.18-1.74,.54-.48,.38-.72,.88-.72,1.5,0,.78,.43,1.41,1.29,1.89,.86,.48,2.04,.72,3.54,.72Zm-.21-19.98c1.16,0,2.18,.22,3.06,.66,.88,.42,1.57,1.01,2.07,1.77,.5,.74,.75,1.6,.75,2.58s-.26,1.85-.78,2.61c-.5,.76-1.19,1.36-2.07,1.8-.88,.42-1.89,.63-3.03,.63-1.88,0-3.34-.47-4.38-1.41-1.02-.94-1.53-2.15-1.53-3.63,0-.98,.25-1.84,.75-2.58,.5-.76,1.19-1.35,2.07-1.77,.9-.44,1.93-.66,3.09-.66Zm0,1.74c-1.06,0-1.95,.3-2.67,.9-.7,.6-1.05,1.39-1.05,2.37s.36,1.78,1.08,2.4c.72,.6,1.6,.9,2.64,.9s1.91-.3,2.61-.9c.72-.62,1.08-1.42,1.08-2.4s-.35-1.77-1.05-2.37c-.7-.6-1.58-.9-2.64-.9Z"/>
    <path d="M200.64,187.27h.06c0-44.57,.03-89.14-.01-133.71,0-12.18-6.42-18.6-18.55-18.66-13.65-.07-27.3-.09-40.95,.02-3.58,.03-5.2-.98-5.87-4.92C132.23,11.78,118.06-.08,100.11,0c-17.71,.09-31.83,11.91-34.79,29.75-.7,4.26-2.47,5.21-6.27,5.18-13.05-.13-26.1-.07-39.14-.03C6.12,34.94,.02,41.03,.02,54.72c0,86.32,0,172.66-.02,258.98,0,5.44,.42,10.82,1.22,16.19,10.71,72.27,90.14,109.88,152,71.47,30.34-18.84,46.22-47.42,47.14-82.79,1.15-43.74,.28-87.52,.28-131.29ZM100.6,4.26c17.38,.23,30.97,14.28,30.8,31.86-.16,17.33-13.72,30.44-31.39,30.34-17.84-.11-31.01-13.58-30.82-31.51,.19-17.03,14.4-30.91,31.41-30.69Zm95.86,308.43c-.04,30.11-10.73,55.79-33.32,75.83-45.1,39.99-115.94,27.67-145.5-24.93-8.86-15.74-13.35-32.63-13.37-50.62-.08-85.9-.04-171.79-.03-257.7,0-11.56,4.51-16.1,15.94-16.13,12.85-.03,25.69,.12,38.54-.08,4-.06,5.97,.97,7.17,5.18,4.64,16.43,18.31,26.89,34.39,26.91,16,.03,29.73-10.46,34.42-26.87,1.18-4.13,3.07-5.3,7.13-5.23,13.25,.22,26.5,.03,39.74,.1,10.29,.06,14.91,4.76,14.92,15.24,.03,44.15,0,88.31,0,132.46s.04,83.89-.02,125.83Z"/>
    <path d="M88.44,50.38c-2.29,0-4.35-.56-6.16-1.68-1.81-1.15-3.24-2.8-4.28-4.96-1.04-2.16-1.56-4.77-1.56-7.84s.52-5.68,1.56-7.84c1.04-2.16,2.47-3.8,4.28-4.92,1.81-1.15,3.87-1.72,6.16-1.72s4.37,.57,6.16,1.72c1.81,1.12,3.24,2.76,4.28,4.92,1.04,2.16,1.56,4.77,1.56,7.84s-.52,5.68-1.56,7.84-2.47,3.81-4.28,4.96c-1.79,1.12-3.84,1.68-6.16,1.68Zm0-5.48c1.09,0,2.04-.31,2.84-.92,.83-.61,1.47-1.59,1.92-2.92,.48-1.33,.72-3.05,.72-5.16s-.24-3.83-.72-5.16c-.45-1.33-1.09-2.31-1.92-2.92-.8-.61-1.75-.92-2.84-.92s-2.01,.31-2.84,.92c-.8,.61-1.44,1.59-1.92,2.92-.45,1.33-.68,3.05-.68,5.16s.23,3.83,.68,5.16c.48,1.33,1.12,2.31,1.92,2.92,.83,.61,1.77,.92,2.84,.92Zm23.84,5.48c-1.95,0-3.88-.25-5.8-.76-1.92-.53-3.55-1.28-4.88-2.24l2.52-4.96c1.07,.77,2.31,1.39,3.72,1.84,1.41,.45,2.84,.68,4.28,.68,1.63,0,2.91-.32,3.84-.96s1.4-1.52,1.4-2.64-.41-1.91-1.24-2.52c-.83-.61-2.16-.92-4-.92h-2.96v-4.28l7.8-8.84,.72,2.32h-14.68v-5.2h19.6v4.2l-7.76,8.84-3.28-1.88h1.88c3.44,0,6.04,.77,7.8,2.32,1.76,1.55,2.64,3.53,2.64,5.96,0,1.57-.41,3.05-1.24,4.44-.83,1.36-2.09,2.47-3.8,3.32-1.71,.85-3.89,1.28-6.56,1.28Z"/>
    <g class="cls-3">
      <g>
        <path class="cls-1" d="M89.28,335.33c-3.37,0-6.73-.01-10.1,0-1.38,0-2.76,.09-4.15,.11-.65,0-.39,.37-.28,.64,1.28,3.02,3.54,4.86,6.82,5.5,.65,.13,1.31,.14,1.97,.14,5.04,0,10.08,0,15.11,0,.9,0,.91,.01,.91,.91,0,.83-.41,1.24-1.23,1.24-5.1,0-10.21,.01-15.31,0-4.87-.02-9.11-3.08-10.55-7.64-.2-.62-.48-.79-1.1-.78-3.52,.03-7.04,.01-10.56,.01-1.21,0-1.57-.36-1.57-1.55,0-5,0-10.01,0-15.01,0-1.11,.41-1.51,1.56-1.51,3.43,0,6.86-.02,10.3,.01,.68,0,.85-.21,.84-.85-.02-5.33-.01-10.65-.01-15.98,0-.84,0-.84-.89-.84-.48,0-.97-.01-1.45,0-.38,0-.56-.14-.59-.52-.11-1.27-.27-2.53-.37-3.8-.03-.45-.17-.69-.66-.79-2.69-.57-5.19-1.61-7.51-3.07-.32-.2-.54-.17-.81,.06-1.01,.83-2.04,1.64-3.04,2.48-.36,.3-.59,.31-.93-.03-1.57-1.57-3.16-3.13-4.76-4.67-.39-.37-.38-.64-.03-1.02,.82-.93,1.59-1.9,2.41-2.83,.28-.32,.36-.56,.1-.95-1.49-2.22-2.49-4.65-3.09-7.24-.1-.46-.3-.64-.78-.67-1.25-.09-2.49-.25-3.74-.35-.51-.04-.68-.24-.67-.73,.02-2.2,.02-4.4,0-6.6,0-.46,.15-.65,.63-.69,1.25-.1,2.49-.25,3.74-.35,.46-.04,.71-.19,.81-.66,.58-2.61,1.62-5.05,3.11-7.3,.24-.36,.19-.58-.08-.89-.85-.96-1.65-1.96-2.49-2.93-.28-.32-.3-.56,.02-.87,1.63-1.57,3.25-3.16,4.85-4.76,.35-.35,.59-.3,.94,0,1,.84,2.04,1.65,3.04,2.48,.26,.22,.46,.24,.75,.06,2.35-1.49,4.89-2.54,7.63-3.12,.44-.09,.53-.36,.56-.75,.11-1.25,.26-2.49,.36-3.73,.04-.44,.23-.58,.67-.58,2.27,.01,4.53,.02,6.8,0,.53,0,.67,.23,.7,.7,.1,1.24,.26,2.49,.36,3.73,.03,.39,.2,.56,.58,.65,2.71,.59,5.24,1.62,7.57,3.1,.33,.21,.55,.13,.81-.09,.99-.82,2.01-1.61,2.99-2.44,.38-.32,.64-.32,.99,.03,1.59,1.58,3.19,3.15,4.81,4.71,.33,.31,.31,.54,.03,.87-.86,.99-1.68,2-2.53,2.98-.25,.29-.28,.52-.06,.85,1.45,2.21,2.5,4.6,3.07,7.18,.12,.55,.37,.77,.97,.8,1.23,.06,2.45,.24,3.68,.34,.44,.04,.61,.21,.61,.65-.01,2.24-.01,4.48,0,6.73,0,.45-.21,.59-.64,.63-1.29,.11-2.58,.26-3.87,.36-.43,.03-.6,.19-.69,.6-.6,2.63-1.62,5.1-3.14,7.36-.23,.34-.17,.56,.08,.85,.83,.95,1.62,1.94,2.45,2.88,.33,.38,.37,.63-.03,1.01-1.58,1.5-3.14,3.02-4.67,4.58-.44,.45-.72,.43-1.18,.03-.92-.81-1.9-1.53-2.84-2.32-.32-.27-.55-.32-.92-.08-2.29,1.46-4.78,2.47-7.45,3.05-.44,.1-.61,.28-.64,.73-.09,1.22-.27,2.44-.35,3.67-.04,.56-.26,.76-.82,.72-.48-.03-.97,.03-1.45-.02-.64-.07-.79,.21-.77,.78,.03,.95,0,1.9,0,2.85,0,4.4,.01,8.8-.01,13.2,0,.64,.17,.84,.85,.86,8.51,.23,17.02,.06,25.53,.14,.47,0,.9,.08,1.32,.33,4.59,2.72,9.19,5.43,13.79,8.14,.74,.43,.74,.47,.02,.89-4.52,2.67-9.05,5.33-13.56,8.01-.49,.29-.98,.42-1.55,.42-3.74-.02-7.48,0-11.22,0h0Zm-32.87-75.85c-.14,.21-.26,.41-.4,.6-2.03,2.73-3.33,5.77-3.82,9.12-.08,.55-.34,.75-.9,.78-1.1,.05-2.19,.19-3.28,.28-.51,.04-.73,.25-.7,.78,.04,.88,.03,1.77,0,2.65-.01,.44,.15,.6,.6,.63,1.18,.09,2.36,.25,3.54,.34,.47,.03,.66,.23,.72,.66,.51,3.46,1.85,6.59,3.98,9.39,.27,.36,.2,.59-.06,.9-.78,.9-1.53,1.84-2.32,2.74-.27,.31-.27,.53,.03,.82,.7,.66,1.39,1.32,2.05,2.01,.29,.3,.51,.3,.83,.04,.89-.74,1.81-1.44,2.69-2.2,.43-.37,.74-.36,1.2-.04,2.79,2.03,5.92,3.29,9.35,3.79,.56,.08,.73,.33,.76,.84,.07,1.1,.2,2.19,.29,3.28,.04,.49,.23,.72,.78,.7,.9-.04,1.8-.03,2.7,0,.44,.01,.62-.12,.65-.58,.09-1.2,.26-2.4,.36-3.6,.03-.4,.21-.56,.6-.61,3.55-.51,6.77-1.81,9.65-3.92,.32-.24,.55-.23,.86,.03,.92,.77,1.87,1.5,2.79,2.27,.33,.28,.56,.32,.88-.02,.66-.69,1.35-1.36,2.05-2.01,.31-.29,.31-.5,.03-.81-.77-.88-1.51-1.8-2.28-2.68-.31-.35-.35-.61-.05-1.01,2.1-2.77,3.42-5.86,3.94-9.28,.07-.46,.22-.67,.73-.7,1.21-.08,2.4-.25,3.61-.35,.43-.04,.57-.21,.56-.61-.01-.88-.03-1.77,0-2.65,.02-.53-.21-.74-.71-.78-1.12-.09-2.23-.23-3.35-.29-.52-.03-.77-.2-.86-.74-.52-3.41-1.83-6.51-3.94-9.28-.31-.4-.24-.66,.06-1,.78-.88,1.51-1.8,2.28-2.68,.29-.34,.27-.56-.06-.86-.69-.63-1.36-1.29-2.01-1.97-.3-.31-.5-.36-.85-.05-.93,.8-1.9,1.54-2.84,2.32-.27,.22-.49,.3-.81,.06-2.89-2.12-6.12-3.46-9.7-3.96-.37-.05-.57-.22-.6-.63-.1-1.16-.27-2.31-.34-3.47-.03-.56-.27-.68-.78-.66-.83,.03-1.68,.05-2.51,0-.65-.04-.85,.25-.89,.81-.08,1.07-.21,2.14-.27,3.22-.03,.48-.24,.69-.71,.75-3.49,.49-6.65,1.78-9.47,3.84-.42,.31-.7,.27-1.08-.05-.88-.75-1.8-1.45-2.68-2.2-.34-.29-.58-.28-.89,.04-.63,.66-1.29,1.3-1.96,1.92-.36,.33-.4,.57-.05,.96,.79,.87,1.52,1.79,2.27,2.69,.11,.13,.2,.28,.31,.45h0Zm32.1,68.05c-3.54,0-7.08,0-10.62-.01-.54,0-.74,.15-.73,.68,.03,1.42,.02,2.85,0,4.27,0,.53,.22,.71,.75,.71,7.1-.01,14.21-.01,21.31,0,.52,0,.69-.17,.68-.67-.03-1.34,0-2.67,0-4.01,0-.65-.32-.97-.96-.97h-10.42Zm.02-2.22h10.5c.87,0,.87,0,.87-.87,0-1.29-.03-2.59,.01-3.88,.02-.62-.19-.81-.82-.81-2.95,0-5.89,0-8.84-.05-4.13-.07-8.27-.02-12.41-.04-.52,0-.69,.16-.68,.67,.03,1.4,.04,2.8,0,4.21-.02,.62,.18,.81,.82,.8,3.52-.03,7.04-.01,10.56-.01Zm-27.1,1.1c0,2.07,.01,4.14,0,6.21,0,.48,.11,.7,.66,.69,1.52-.03,3.03-.03,4.55,0,.53,0,.68-.18,.68-.68-.01-4.14-.01-8.27,0-12.41,0-.48-.12-.7-.66-.69-1.52,.03-3.03,.03-4.55,0-.53-.01-.68,.18-.67,.68,.02,2.07,0,4.14,0,6.21h0Zm8.07,.07c0,2.05,.01,4.09,0,6.14,0,.49,.12,.7,.67,.68,1.38-.03,2.77-.02,4.15,0,.48,0,.65-.15,.65-.63-.01-4.18-.01-8.36,0-12.54,0-.45-.16-.61-.62-.6-1.34,.02-2.68,.04-4.02,0-.64-.02-.84,.2-.84,.81,.03,2.05,.01,4.09,.01,6.14h0Zm32.59,5.8c.17-.06,.24-.07,.29-.1,3.07-1.81,6.14-3.63,9.22-5.43,.44-.26,.33-.38-.03-.59-2.98-1.75-5.96-3.5-8.94-5.27-.47-.28-.56-.19-.56,.32,.02,2.74,0,5.48,0,8.22v2.85Z"/>
        <path class="cls-1" d="M138.01,341.71c-1.13-1.08-2.11-2.17-2.85-3.47-1.02-1.8-1.43-3.74-1.43-5.78v-63.72c0-.85-.01-.86-.89-.86h-27.52c-.22,0-.44-.02-.66,0-.43,.03-.61-.17-.58-.57,0-.11,.02-.21,.02-.32,.04-.88,.53-1.33,1.46-1.33h29.31c.76,0,1.13,.37,1.13,1.1v48.07c0,.22,.02,.43,0,.65-.04,.48,.18,.64,.66,.64,1.67-.02,3.34,0,5.02,0,.92,0,.94,.01,.93,.9,0,1.4,.16,1.32-1.35,1.32s-3.04,.01-4.55,0c-.5,0-.71,.16-.7,.67,.01,4.79-.03,9.57,.03,14.36,.05,4.01,3.32,7.6,7.36,8.22,5.69,.88,10.52-3.17,10.52-8.82,0-4.53-.01-9.06,.01-13.58,0-.64-.17-.87-.85-.85-1.65,.04-3.3,0-4.95,.02-.57,0-.77-.2-.78-.76-.02-1.47-.04-1.47,1.43-1.47,2.14,0,4.27,0,6.4,0,.92,0,.93,.01,.93,.89,0,5.35,.01,10.7,0,16.04-.01,5.01-3.55,9.36-8.51,10.54-.81,.19-1.63,.29-2.48,.29-13.09-.01-26.18,0-39.27-.02-.32,0-.81,.2-.93-.23-.16-.57-.19-1.19,.04-1.77,.05-.13,.22-.13,.35-.13,.22,0,.44,0,.66,0h32.06Z"/>
        <path class="cls-1" d="M115.63,277.7c-1.6-.01-2.91,.6-3.92,1.8-.28,.34-.51,.42-.86,.13-.17-.14-.36-.24-.55-.36-.83-.54-.84-.56-.19-1.29,.03-.03,.05-.07,.09-.09,1.18-.72,1.3-1.81,1.19-3.02-.06-.64-.06-1.3,.04-1.94,.34-2.13,2.35-3.58,4.65-3.42,2.06,.14,3.79,1.96,3.83,4.03,.02,.93,.02,1.85,0,2.78,0,.35,.1,.6,.38,.83,3.54,3.04,3.54,7.97,.01,10.98-.3,.25-.37,.47-.25,.83,1.09,3.21,2.18,6.42,3.25,9.64,.15,.45,.36,.59,.82,.42,.49-.19,1-.33,1.49-.53,.33-.13,.54-.09,.7,.23,.84,1.64,1.17,1.42-.75,2.13-1.32,.49-1.34,.46-.9,1.75,1.09,3.26,2.17,6.51,3.29,9.76,.21,.6,.15,.88-.52,1.07-1.53,.42-1.25,.63-1.77-.89-1.15-3.4-2.29-6.79-3.41-10.2-.16-.48-.36-.63-.88-.56-2.14,.29-4.29,.43-6.44,.39-1.67-.03-3.34-.13-4.99-.39-.58-.09-.75,.12-.9,.6-1.19,3.61-2.42,7.2-3.61,10.82-.17,.53-.39,.61-.9,.44-1.43-.48-1.44-.46-.95-1.9,1.09-3.26,2.17-6.52,3.29-9.76,.2-.58,.09-.8-.51-.94-.53-.12-1.04-.35-1.55-.55-.14-.05-.35-.12-.39-.23-.22-.65,.4-1.02,.58-1.54,.1-.3,.32-.35,.63-.23,.55,.21,1.12,.38,1.68,.58,.36,.13,.53-.01,.63-.33,1.1-3.28,2.19-6.55,3.3-9.82,.12-.35,0-.55-.27-.77-1.48-1.19-2.3-2.75-2.58-4.59-.13-.84-.03-.95,.81-.96h.26c.68,0,1.08,.32,1.19,.97,.43,2.43,2.58,4.13,5.18,4.08,2.4-.04,4.49-1.9,4.81-4.27,.41-3.07-1.88-5.66-5.02-5.65h0Zm-.08,22.26c1.74,0,3.47-.05,5.2-.28,.42-.06,.53-.19,.4-.58-1.03-3.05-2.06-6.1-3.07-9.15-.12-.36-.3-.45-.69-.36-1.15,.28-2.31,.29-3.46,0-.42-.11-.6,0-.73,.39-1.01,3.03-2.02,6.06-3.05,9.09-.14,.42-.06,.55,.41,.61,1.66,.23,3.33,.27,5,.28Zm-1.97-25.57c0,.26,.01,.52,0,.77-.03,.48,.17,.59,.63,.48,.97-.23,1.96-.22,2.93,.01,.46,.11,.6-.05,.59-.48-.02-.54,.02-1.08-.02-1.61-.09-1.13-1.02-1.95-2.16-1.91-1.08,.03-1.94,.91-1.97,2.02,0,.23,0,.47,0,.71h0Z"/>
        <path class="cls-1" d="M60.28,272.31c0-7.01,5.67-12.53,12.85-12.51,7.03,.01,12.73,5.63,12.72,12.55-.01,6.94-5.78,12.53-12.91,12.51-6.97-.02-12.66-5.66-12.65-12.54Zm20.71-6.73c-.02-.25-.23-.36-.37-.5-2.52-2.45-5.55-3.47-9.07-3.01-4.91,.64-8.91,4.89-9.05,9.6-.16,5.39,3.3,9.81,8.46,10.8,.65,.12,.97-.13,.97-.75v-15.13c0-.9,.01-.91,.91-.91,2.48,0,4.97,0,7.45,0,.23,0,.48,.07,.71-.08h0Zm-6.87,9.63c0,2.24,0,4.48,0,6.72,0,.49,.12,.71,.68,.63,6.57-.98,10.65-8.11,8.08-14.11-.18-.43-.44-.57-.9-.57-2.37,.01-4.75,.02-7.12,0-.58,0-.76,.18-.75,.74,.03,2.2,.01,4.39,.01,6.59Z"/>
      </g>
    </g>
  </g>
</svg>