<?xml version="1.0" encoding="UTF-8"?>
<svg id="Layer_2" data-name="Layer 2" xmlns="http://www.w3.org/2000/svg" xmlns:xlink="http://www.w3.org/1999/xlink" viewBox="0 0 201.6 416.45">
  <defs>
    <style>
      .cls-1 {
        fill: #fff;
      }

      .cls-2 {
        fill: #387ef0;
      }

      .cls-3 {
        clip-path: url(#clippath);
      }

      .cls-4 {
        fill: none;
      }
    </style>
    <clipPath id="clippath">
      <rect class="cls-4" x="46.99" y="239" width="109" height="116"/>
    </clipPath>
  </defs>
  <g id="Layer_1-2" data-name="Layer 1">
    <path class="cls-2" d="M180.99,300.5c0,43.91-35.59,79.5-79.5,79.5s-79.5-35.59-79.5-79.5,35.59-79.5,79.5-79.5,79.5,35.59,79.5,79.5Z"/>
    <path d="M48.23,107.2v19.8h-2.07v-13.08l.24-4.77h-.03l-6.42,17.85h-1.86l-6.45-17.85h-.03l.24,4.77v13.08h-2.04v-19.8h3.3l4.59,12.81,1.29,4.44h.06l1.32-4.41,4.56-12.84h3.3Zm11.65,4.5c1.36,0,2.56,.31,3.6,.93,1.04,.62,1.86,1.52,2.46,2.7,.6,1.16,.9,2.55,.9,4.17s-.3,3.02-.9,4.2c-.6,1.16-1.42,2.05-2.46,2.67-1.04,.62-2.24,.93-3.6,.93s-2.54-.31-3.6-.93c-1.04-.62-1.86-1.51-2.46-2.67-.6-1.18-.9-2.58-.9-4.2s.3-3.01,.9-4.17c.6-1.18,1.42-2.08,2.46-2.7,1.06-.62,2.26-.93,3.6-.93Zm0,1.86c-.98,0-1.83,.24-2.55,.72-.72,.48-1.28,1.16-1.68,2.04-.38,.88-.57,1.94-.57,3.18s.19,2.28,.57,3.18c.4,.88,.96,1.56,1.68,2.04,.72,.48,1.57,.72,2.55,.72s1.85-.24,2.55-.72c.72-.48,1.27-1.16,1.65-2.04,.4-.9,.6-1.96,.6-3.18s-.2-2.3-.6-3.18c-.38-.88-.93-1.56-1.65-2.04-.7-.48-1.55-.72-2.55-.72Zm11.43,13.44v-15h1.89l.18,3.45-.33-.3c.42-1.2,1.11-2.07,2.07-2.61,.96-.56,2.02-.84,3.18-.84,1.02,0,1.94,.21,2.76,.63,.84,.42,1.51,1.05,2.01,1.89,.5,.82,.75,1.87,.75,3.15v9.63h-2.16v-8.88c0-1.66-.35-2.83-1.05-3.51-.7-.68-1.57-1.02-2.61-1.02-.72,0-1.43,.18-2.13,.54-.7,.36-1.28,.93-1.74,1.71-.44,.78-.66,1.8-.66,3.06v8.1h-2.16Zm20-15v15h-2.16v-15h2.16Zm-.93-2.88c-.54,0-.98-.16-1.32-.48-.32-.34-.48-.78-.48-1.32s.16-.97,.48-1.29c.34-.34,.78-.51,1.32-.51s.97,.17,1.29,.51c.34,.32,.51,.75,.51,1.29s-.17,.98-.51,1.32c-.32,.32-.75,.48-1.29,.48Zm9.54-1.35v15.12c0,.8,.2,1.4,.6,1.8s.93,.6,1.59,.6c.56,0,1.03-.1,1.41-.3,.4-.2,.76-.47,1.08-.81l.72,1.8c-.44,.42-.95,.75-1.53,.99-.58,.22-1.24,.33-1.98,.33-1.12,0-2.08-.31-2.88-.93-.78-.62-1.17-1.65-1.17-3.09v-14.91l2.16-.6Zm5.16,4.23v1.86h-10.14v-1.86h10.14Zm9.35-.3c1.36,0,2.56,.31,3.6,.93,1.04,.62,1.86,1.52,2.46,2.7,.6,1.16,.9,2.55,.9,4.17s-.3,3.02-.9,4.2c-.6,1.16-1.42,2.05-2.46,2.67-1.04,.62-2.24,.93-3.6,.93s-2.54-.31-3.6-.93c-1.04-.62-1.86-1.51-2.46-2.67-.6-1.18-.9-2.58-.9-4.2s.3-3.01,.9-4.17c.6-1.18,1.42-2.08,2.46-2.7,1.06-.62,2.26-.93,3.6-.93Zm0,1.86c-.98,0-1.83,.24-2.55,.72-.72,.48-1.28,1.16-1.68,2.04-.38,.88-.57,1.94-.57,3.18s.19,2.28,.57,3.18c.4,.88,.96,1.56,1.68,2.04,.72,.48,1.57,.72,2.55,.72s1.85-.24,2.55-.72c.72-.48,1.27-1.16,1.65-2.04,.4-.9,.6-1.96,.6-3.18s-.2-2.3-.6-3.18c-.38-.88-.93-1.56-1.65-2.04-.7-.48-1.55-.72-2.55-.72Zm11.43,13.44v-15h1.8l.27,2.64c.36-.94,.92-1.66,1.68-2.16,.76-.52,1.67-.78,2.73-.78,.28,0,.56,.03,.84,.09,.28,.04,.52,.13,.72,.27l-.36,1.95c-.2-.1-.43-.17-.69-.21-.24-.06-.58-.09-1.02-.09-.6,0-1.2,.2-1.8,.6-.58,.38-1.06,.95-1.44,1.71-.38,.76-.57,1.69-.57,2.79v8.19h-2.16Zm13.62-15v15h-2.16v-15h2.16Zm-.93-2.88c-.54,0-.98-.16-1.32-.48-.32-.34-.48-.78-.48-1.32s.16-.97,.48-1.29c.34-.34,.78-.51,1.32-.51s.97,.17,1.29,.51c.34,.32,.51,.75,.51,1.29s-.17,.98-.51,1.32c-.32,.32-.75,.48-1.29,.48Zm6.45,17.88v-15h1.89l.18,3.45-.33-.3c.42-1.2,1.11-2.07,2.07-2.61,.96-.56,2.02-.84,3.18-.84,1.02,0,1.94,.21,2.76,.63,.84,.42,1.51,1.05,2.01,1.89,.5,.82,.75,1.87,.75,3.15v9.63h-2.16v-8.88c0-1.66-.35-2.83-1.05-3.51s-1.57-1.02-2.61-1.02c-.72,0-1.43,.18-2.13,.54-.7,.36-1.28,.93-1.74,1.71-.44,.78-.66,1.8-.66,3.06v8.1h-2.16Zm29.9-17.76l.48,1.92h-.21c-.94,0-1.67,.21-2.19,.63-.5,.42-.75,1.07-.75,1.95l-1.29-.69c0-.78,.17-1.45,.51-2.01,.34-.58,.79-1.02,1.35-1.32,.58-.32,1.23-.48,1.95-.48h.15Zm-4.5,15.96c1.4,0,2.49,.33,3.27,.99,.78,.64,1.17,1.49,1.17,2.55,0,.96-.31,1.79-.93,2.49-.6,.7-1.43,1.24-2.49,1.62-1.04,.4-2.22,.6-3.54,.6-2.24,0-3.93-.4-5.07-1.2-1.12-.78-1.68-1.74-1.68-2.88,0-.8,.27-1.52,.81-2.16,.54-.62,1.4-.98,2.58-1.08l-.15,.42c-.66-.18-1.22-.49-1.68-.93-.46-.44-.69-1.06-.69-1.86s.28-1.44,.84-2.04c.58-.6,1.44-.96,2.58-1.08l1.56,.72h-.39c-.92,.08-1.6,.32-2.04,.72-.42,.38-.63,.83-.63,1.35,0,.58,.21,1.02,.63,1.32s.99,.45,1.71,.45h4.14Zm-2.49,6.48c1.1,0,2.02-.13,2.76-.39,.74-.24,1.3-.57,1.68-.99,.38-.4,.57-.84,.57-1.32,0-.6-.24-1.08-.72-1.44-.46-.34-1.23-.51-2.31-.51h-4.35c-.68,0-1.26,.18-1.74,.54-.48,.38-.72,.88-.72,1.5,0,.78,.43,1.41,1.29,1.89,.86,.48,2.04,.72,3.54,.72Zm-.21-19.98c1.16,0,2.18,.22,3.06,.66,.88,.42,1.57,1.01,2.07,1.77,.5,.74,.75,1.6,.75,2.58s-.26,1.85-.78,2.61c-.5,.76-1.19,1.36-2.07,1.8-.88,.42-1.89,.63-3.03,.63-1.88,0-3.34-.47-4.38-1.41-1.02-.94-1.53-2.15-1.53-3.63,0-.98,.25-1.84,.75-2.58,.5-.76,1.19-1.35,2.07-1.77,.9-.44,1.93-.66,3.09-.66Zm0,1.74c-1.06,0-1.95,.3-2.67,.9-.7,.6-1.05,1.39-1.05,2.37s.36,1.78,1.08,2.4c.72,.6,1.6,.9,2.64,.9s1.91-.3,2.61-.9c.72-.62,1.08-1.42,1.08-2.4s-.35-1.77-1.05-2.37c-.7-.6-1.58-.9-2.64-.9Z"/>
    <path d="M201.43,185.12c0-43.35,.04-86.7-.03-130.05-.02-13.42-6.67-19.97-20.01-20.03-12.44-.05-24.89-.23-37.33,.09-5.35,.14-8.12-1.28-8.77-7.02-.68-5.88-3.6-11.04-7.52-15.49C117.94,1.44,105.45-2.33,91.31,1.39c-13.77,3.62-22.39,13.08-25.22,27.08-1.05,5.24-3.29,6.81-8.45,6.67-12.24-.34-24.48-.14-36.72-.1C6.27,35.09,.1,41.28,.1,55.95c0,85.7-.28,171.41,.13,257.1,.17,36,15.06,65.2,44.51,86.4,31.38,22.6,79.77,22.54,111.19,.5,30.52-21.41,44.86-51.27,45.37-87.78,.6-42.35,.14-84.71,.14-127.05ZM100.33,4.31c17.29,0,31.73,14.17,31.69,31.11-.04,17.79-13.91,31.35-31.89,31.15-17.03-.19-31.06-14.28-30.89-31.03,.17-16.76,14.56-31.22,31.09-31.23Zm95.96,314.03c-.65,32.79-15.31,59.13-42.48,77.75-35.94,24.63-84.93,21.1-116.95-8.55-19.15-17.73-29.92-39.89-31.87-66.2-.75-10.23-.78-20.45-.78-30.69,0-67.86-.03-135.74,.03-203.6,0-11.63,.39-23.27,.7-34.9,.21-7.47,4.32-12.49,11.71-12.72,14.85-.46,29.71-.15,44.57-.22,3.83-.02,4.28,2.72,5.11,5.51,7.57,25.4,36.07,34.51,56.96,18.24,6.08-4.74,10.15-10.98,11.65-18.47,.88-4.38,3.02-5.41,7.03-5.36,12.64,.17,25.3,.04,37.94,.06,12.59,.03,16.69,4.07,16.69,16.52,.02,43.97,0,87.94,0,131.92h-.11c0,43.57,.66,87.15-.22,130.71Z"/>
    <path d="M89.08,50.48c-2.29,0-4.35-.56-6.16-1.68-1.81-1.15-3.24-2.8-4.28-4.96s-1.56-4.77-1.56-7.84,.52-5.68,1.56-7.84,2.47-3.8,4.28-4.92c1.81-1.15,3.87-1.72,6.16-1.72s4.37,.57,6.16,1.72c1.81,1.12,3.24,2.76,4.28,4.92,1.04,2.16,1.56,4.77,1.56,7.84s-.52,5.68-1.56,7.84c-1.04,2.16-2.47,3.81-4.28,4.96-1.79,1.12-3.84,1.68-6.16,1.68Zm0-5.48c1.09,0,2.04-.31,2.84-.92,.83-.61,1.47-1.59,1.92-2.92,.48-1.33,.72-3.05,.72-5.16s-.24-3.83-.72-5.16c-.45-1.33-1.09-2.31-1.92-2.92-.8-.61-1.75-.92-2.84-.92s-2.01,.31-2.84,.92c-.8,.61-1.44,1.59-1.92,2.92-.45,1.33-.68,3.05-.68,5.16s.23,3.83,.68,5.16c.48,1.33,1.12,2.31,1.92,2.92,.83,.61,1.77,.92,2.84,.92Zm24.67,5.48c-1.95,0-3.88-.25-5.8-.76-1.89-.53-3.52-1.28-4.88-2.24l2.56-4.96c1.07,.77,2.29,1.39,3.68,1.84,1.41,.45,2.84,.68,4.28,.68,1.63,0,2.91-.32,3.84-.96,.93-.64,1.4-1.53,1.4-2.68,0-.72-.19-1.36-.56-1.92-.37-.56-1.04-.99-2-1.28-.93-.29-2.25-.44-3.96-.44h-7.16l1.44-15.76h17.08v5.2h-14.76l3.36-2.96-1,11.24-3.36-2.96h5.92c2.77,0,5,.39,6.68,1.16,1.71,.75,2.95,1.77,3.72,3.08,.77,1.31,1.16,2.79,1.16,4.44s-.41,3.19-1.24,4.6c-.83,1.39-2.11,2.52-3.84,3.4-1.71,.85-3.89,1.28-6.56,1.28Z"/>
    <g class="cls-3">
      <g>
        <path class="cls-1" d="M104.02,239.12c4.45,.8,8.24,2.87,11.31,6.18,3.14,3.38,5.18,7.37,6.43,11.8,.65,2.3,.98,4.66,1.18,7.03,.1,1.14-.06,1.29-1.22,1.31-.92,.01-1.83,0-2.75,.01-.38,0-.87-.12-1.03,.41-.17,.55,.16,.85,.59,1.16,2.15,1.53,2.56,4.08,1.01,6.03-.32,.4-.69,.79-1.17,.96-.82,.3-1.18,.88-1.43,1.69-.96,3.12-2.64,5.81-5.08,7.98-.56,.5-.7,.98-.47,1.69,.47,1.42,.86,2.86,1.26,4.31,.15,.57,.42,.93,1.01,1.15,5.79,2.14,11.41,4.71,17.03,7.25,.49,.22,.99,.21,1.49,.21,5.09,0,10.17,0,15.26,0,1.32,0,1.36,.04,1.36,1.39,0,6.88,.02,13.75-.02,20.62,0,.99,.31,1.28,1.28,1.27,3.36-.02,5.51,1.84,5.76,5.16,.2,2.61,.25,5.24-.05,7.85-.33,2.92-2.46,4.74-5.39,4.81-1.05,.02-1.58,.57-1.58,1.65,0,4.22-.02,8.44,.02,12.66,.01,.96-.25,1.27-1.25,1.27-30.62-.03-61.24-.02-91.86-.02-1.14,0-1.72-.58-1.72-1.74,0-4.19-.02-8.37,.02-12.56,.01-.99-.32-1.28-1.29-1.28-3.58,0-5.72-2.22-5.72-5.83,0-2.18-.01-4.35,0-6.53,.02-3.11,2.29-5.4,5.39-5.46,1.06-.02,1.59-.57,1.6-1.65v-20.01c0-1.59,.02-1.6,1.58-1.6,5.02,0,10.04,0,15.06,0,.7,0,1.32-.16,1.95-.44,5.61-2.49,11.18-5.08,16.96-7.16,.78-.28,1.22-.7,1.42-1.53,.32-1.32,.73-2.62,1.14-3.92,.19-.59,.1-.99-.39-1.42-2.56-2.26-4.31-5.05-5.29-8.32-.2-.67-.56-1.08-1.18-1.4-2.86-1.52-3.08-5.15-.44-7.05,.4-.29,.81-.55,.66-1.13-.17-.66-.75-.46-1.19-.48-.98-.03-1.97-.01-2.95-.02-.55,0-.9-.2-.86-.85,.42-6.54,2.21-12.58,6.34-17.77,2.25-2.82,4.9-5.02,8.07-6.37,2.02-.86,3.88-1.17,4.19-1.22,2.02-.33,3.74-.26,4.96-.11h0Zm-2.68,113.68h43.43c.31,0,.61-.02,.92,0,.62,.04,.83-.26,.83-.85,0-3.88-.01-7.76,0-11.64,0-.66-.26-.91-.91-.9-1.02,.02-2.04,.04-3.05-.01-2.37-.12-3.7-2.24-2.77-4.41,.2-.45,.23-.79,0-1.23-.6-1.1,.05-2.14,.14-3.21,.08-1.01-.79-2.08-.2-3.21,.03-.06,.05-.13,.09-.19,.29-.38,.17-.72,0-1.13-.95-2.21,.43-4.37,2.82-4.44,.88-.03,1.77-.07,2.64,0,.99,.08,1.27-.3,1.26-1.28-.04-5.99-.02-11.98-.02-17.96,0-.34,0-.68,0-1.02,0-.46-.21-.7-.67-.7-.34,0-.68,0-1.02,0H57.97c-.27,0-.54,.02-.81,0-.66-.05-.89,.26-.89,.91,.01,6.39,.01,12.79,0,19.19,0,.69,.3,.88,.93,.87,1.02-.02,2.03-.03,3.05,0,2.36,.09,3.73,2.2,2.81,4.37-.21,.49-.23,.87,.02,1.33,.59,1.11-.17,2.18-.15,3.22,.02,1.05,.73,2.11,.14,3.23-.22,.42-.23,.78-.03,1.24,.95,2.23-.41,4.35-2.82,4.44-.95,.03-1.9,.05-2.85,0-.85-.05-1.11,.29-1.1,1.12,.03,3.61,.01,7.21,.01,10.82,0,.97,.48,1.45,1.44,1.45h43.63Zm.31-89.64h17.6c1.22,0,1.35-.1,1.19-1.26-.92-6.5-3.39-12.24-8.43-16.63-3.03-2.64-6.58-4.08-10.62-3.96-5.27,.15-9.36,2.69-12.64,6.67-3.26,3.97-5,8.6-5.74,13.65-.21,1.45-.18,1.53,1.25,1.53h17.39Zm0,2.3c-1.83,0-3.66,.02-5.49-.01-.8-.02-1.08,.3-1.05,1.09,.04,1.09-.01,2.18,.02,3.26,.02,.67-.23,.99-.94,1.01-2.21,.05-4.42,.19-6.29-1.34-.18-.15-.42-.22-.62-.34-.46-.27-.91-.49-1.39-.03-.49,.47-.82,1.02-.63,1.72,.23,.87,.81,1.47,1.71,1.5,.83,.03,1.09,.44,1.24,1.16,.54,2.54,1.57,4.86,3.23,6.85,3.24,3.88,7.35,5.86,12.4,4.92,5.99-1.12,9.4-5.16,11.13-10.8,.34-1.1,.41-2.32,2-2.24,.12,0,.25-.1,.36-.17,.86-.54,1.12-1.62,.59-2.5-.5-.83-.94-.89-2.06-.27-.71,.39-1.43,.78-2.13,1.19-.36,.2-.73,.35-1.15,.35-1.12,0-2.24-.02-3.36,0-.71,.02-.97-.31-.95-.99,.02-.92,0-1.84,0-2.75,0-1.07-.55-1.6-1.65-1.6h-4.98Zm-.01,30.6c.59-.06,1.37-.11,2.14-.23,2.63-.39,4.93-1.42,6.62-3.58,.32-.41,.44-.8,.28-1.31-.44-1.46-.87-2.93-1.27-4.4-.17-.61-.41-.74-1.01-.44-4.45,2.24-8.92,2.22-13.37,.01-.61-.3-.81-.15-.98,.47-.41,1.54-.85,3.08-1.35,4.59-.27,.83-.09,1.39,.52,1.99,2.31,2.24,5.2,2.76,8.42,2.91h0Zm45.15,41.05h0c1.19,0,2.37,0,3.56,0,.07,0,.14,0,.2,0,1.69-.07,3-1.27,3.04-2.95,.06-2.45,.06-4.9,0-7.35-.04-1.47-1.1-2.79-2.45-2.84-2.84-.11-5.69-.06-8.54-.06-.5,0-.87,.26-.84,.82,.03,.49,.38,.7,.84,.72,.47,.02,.95,.05,1.42,.01,.89-.08,1.18,.29,1.18,1.18,0,.94-.39,1.2-1.23,1.14-.44-.03-.88,0-1.32,.01-.49,.02-.89,.21-.9,.77,0,.55,.38,.77,.88,.78,.58,.02,1.15,.03,1.73,.02,.8-.01,.82,.52,.82,1.1,0,.6,.04,1.21-.84,1.19-.51,0-1.02,0-1.53,.01-.55,.01-1.07,.13-1.06,.81,.01,.61,.5,.74,1.01,.75,.47,0,.95,.03,1.43,0,.67-.03,.98,.23,.99,.95,.01,1.23-.07,1.34-1.29,1.36-.37,0-.75,0-1.12,0-.51,0-1,.14-1.01,.75-.02,.68,.5,.82,1.05,.82,1.32,0,2.65,0,3.97,0h0Zm-90.74-13.23h0c-.61,0-1.22,0-1.83,0-.64,0-1.29-.02-1.93,0-1.77,.06-2.96,1.17-2.99,2.93-.05,2.45-.05,4.89,0,7.34,.03,1.75,1.23,2.91,2.98,2.95,1.45,.03,2.91,.01,4.37,.01,1.15,0,2.3,0,3.45-.01,.48,0,.9-.18,.92-.74,.02-.62-.41-.8-.94-.82-.44-.01-.88-.05-1.32,0-.91,.08-1.17-.35-1.16-1.2,0-.85,.33-1.18,1.15-1.11,.4,.03,.81,0,1.22,0,.55-.01,1.07-.12,1.06-.81-.02-.69-.57-.75-1.1-.76-.51,0-1.02,0-1.52-.01-.81,0-.78-.59-.78-1.15s-.03-1.14,.78-1.14c.47,0,.95,0,1.42-.01,.56,0,1.17-.02,1.2-.77,.04-.79-.59-.78-1.14-.8-.47-.02-.95-.02-1.42,0-.6,0-.82-.3-.85-.88-.06-1.24,.08-1.4,1.33-1.42,.31,0,.61,0,.91,0,.57,0,1.17-.04,1.16-.8-.02-.76-.65-.76-1.2-.77-1.25-.01-2.51,0-3.76,0h0Zm44.41-25.58c-3.32-.23-6.53-1.01-8.7-3.59-1.48-1.76-2.72-1.7-4.39-.76-.03,.02-.06,.03-.09,.04-.59,.17-.72,.44-.22,.9,1.04,.97,2.07,1.95,3.09,2.94,.33,.32,.71,.48,1.18,.48,3.04,0,6.08,0,9.12,0h0Zm1.82,0c3.13,0,6.27,0,9.4,0,.4,0,.71-.17,.99-.44,1.07-1.03,2.15-2.07,3.24-3.08,.38-.35,.31-.53-.15-.7-.76-.28-1.53-.56-2.27-.89-.56-.25-.93-.18-1.28,.35-.47,.71-1.08,1.3-1.75,1.84-2.39,1.92-5.17,2.74-8.19,2.92h0Zm13.2,0h6.04c.63,0,.74-.5,.87-.96,.13-.46-.24-.58-.54-.72-.86-.38-1.74-.74-2.6-1.13-.34-.15-.64-.17-.93,.1-.88,.83-1.75,1.67-2.84,2.7h0Zm-28.45,0c.02-.44-.26-.56-.44-.74-1.61-1.61-3.44-1.93-5.5-.97-.31,.14-.79,.18-.65,.73,.12,.47,.26,.96,.86,.97,1.91,.02,3.82,0,5.72,0h0Zm26.06-32.83c-2.72,.05-2.51-.52-2.51,2.25,0,.57,.26,.74,.8,.79,1.61,.17,2.72-.88,3.97-1.59,.36-.2,.27-.67,.19-1.04-.09-.38-.42-.41-.73-.41-.58-.01-1.15,0-1.73,0h0Zm-22.78,0c-.54,0-1.08-.01-1.62,0-.37,0-.79-.02-.86,.5-.06,.42-.05,.83,.38,1.07,.8,.45,1.56,.97,2.4,1.32,1.52,.63,2.22,.13,2.22-1.45,0-1.42-.02-1.44-1.4-1.44h-1.12Z"/>
        <path class="cls-1" d="M92.47,341.49c-1.19,0-2.02,.72-2.81,1.47-.53,.51-.91,.54-1.43-.02-.99-1.07-2.03-2.1-3.09-3.11-.47-.45-.51-.82-.06-1.29,.31-.32,.58-.66,.85-1.01,.78-.99,.94-2.06,.48-3.25-.52-1.34-.97-2.74-2.62-3.1-.49-.1-1.01-.14-1.51-.17-.77-.05-1.15-.35-1.11-1.2,.06-1.39,.03-2.79,0-4.18-.01-.68,.23-.98,.93-1.02,.74-.04,1.5-.07,2.19-.36,2.24-.95,3.1-4.56,1.55-6.43-1.43-1.72-1.28-1.25,.1-2.69,.8-.83,1.65-1.62,2.43-2.46,.46-.5,.83-.6,1.34-.07,.35,.36,.76,.67,1.18,.97,.88,.64,1.84,.83,2.88,.41,.66-.27,1.35-.48,1.96-.84,1.22-.73,1.49-1.97,1.5-3.27,0-.87,.3-1.22,1.2-1.18,1.35,.06,2.71,.05,4.07,0,.85-.04,1.16,.33,1.15,1.13,0,.47,.07,.95,.12,1.42,.21,2.25,4.72,3.95,6.46,2.29,1.49-1.43,1.61-1.3,3.1,.2,.6,.6,1.2,1.2,1.8,1.8,.69,.69,.7,1.42,.04,2.18-.5,.57-.97,1.14-1.1,1.91-.41,2.31,1.36,4.77,3.65,5.09,.27,.04,.54,.11,.81,.1,.75-.03,1.01,.34,1,1.06-.03,1.39-.03,2.79,0,4.18,.02,.71-.25,1.09-.97,1.13-.37,.02-.74,.06-1.11,.08-.52,.02-1,.17-1.45,.43-2.01,1.18-2.61,4.54-1.13,6.32,.19,.23,.39,.47,.61,.69,.42,.42,.43,.78-.01,1.21-1.1,1.07-2.18,2.14-3.23,3.25-.47,.5-.83,.41-1.29,0-.63-.56-1.23-1.19-2.07-1.43-2.48-.69-5.27,1.33-5.4,3.9-.07,1.47-.1,1.51-1.62,1.51-1.08,0-2.17,0-3.25,0-1.45,0-1.49,0-1.53-1.45-.09-2.86-1.87-3.71-4.58-4.22h0Zm20.44-24.73c-.19-.5-.61-.81-.97-1.15-.38-.36-.7-.08-.99,.13-2.88,2.14-8.9-.38-9.37-4-.09-.72-.46-.86-1.1-.87-.66-.01-1.11,.11-1.21,.87-.47,3.59-6.73,6.11-9.52,3.8-.48-.39-.84-.3-1.2,.14-.34,.42-.97,.7-.42,1.42,2.27,2.96-.33,9.1-3.86,9.54-.61,.08-.84,.47-.81,1.08,.02,.57,.03,1.11,.77,1.22,3.63,.53,6.13,6.87,3.75,9.65-.2,.24-.32,.48-.08,.82,.61,.88,1.08,1.02,2.03,.52,.33-.17,.68-.32,1.03-.43,3.2-.98,7.21,1.22,8.11,4.51,.2,.73,.55,.89,1.21,.87,.61-.02,1-.09,1.11-.84,.51-3.57,6.66-6.11,9.52-3.78,.57,.47,.9,.14,1.28-.24,.38-.39,.84-.68,.35-1.35-.56-.74-.82-1.63-.85-2.58-.11-3.36,1.63-5.85,4.92-6.97,.55-.19,.62-.56,.61-1.02-.02-.46,.13-1.01-.53-1.16-2.5-.57-3.76-2.32-4.55-4.62-.58-1.7-.51-3.26,.37-4.81,.13-.24,.26-.47,.42-.74h0Z"/>
        <path class="cls-1" d="M108.16,327.88c0,4.42-3.46,7.89-7.86,7.88-4.29-.01-7.87-3.57-7.87-7.84,0-4.32,3.59-7.95,7.88-7.97,4.34-.01,7.86,3.54,7.85,7.93Zm-7.86,5.58c3.14,.01,5.63-2.42,5.68-5.55,.05-3.06-2.51-5.64-5.61-5.65-3.14,0-5.64,2.46-5.65,5.57-.01,3.17,2.42,5.61,5.58,5.63h0Z"/>
      </g>
    </g>
  </g>
</svg>