<?xml version="1.0" encoding="UTF-8"?>
<svg id="Layer_2" data-name="Layer 2" xmlns="http://www.w3.org/2000/svg" xmlns:xlink="http://www.w3.org/1999/xlink" viewBox="0 0 201.24 416.23">
  <defs>
    <style>
      .cls-1 {
        fill: #fff;
      }

      .cls-2 {
        fill: #387ef0;
      }

      .cls-3 {
        clip-path: url(#clippath);
      }

      .cls-4 {
        fill: none;
      }
    </style>
    <clipPath id="clippath">
      <rect class="cls-4" x="59" y="266.76" width="83" height="94"/>
    </clipPath>
  </defs>
  <g id="Layer_1-2" data-name="Layer 1">
    <path class="cls-2" d="M180,313.26c0,43.91-35.59,79.5-79.5,79.5s-79.5-35.59-79.5-79.5,35.59-79.5,79.5-79.5,79.5,35.59,79.5,79.5Z"/>
    <path d="M16.61,126.76v-19.8h13.29v2.01h-11.13v6.72h8.7v2.04h-8.7v7.02h11.55v2.01h-13.71Zm17.95,0v-15h1.89l.18,3.45-.33-.3c.42-1.2,1.11-2.07,2.07-2.61,.96-.56,2.02-.84,3.18-.84,1.02,0,1.94,.21,2.76,.63,.84,.42,1.51,1.05,2.01,1.89,.5,.82,.75,1.87,.75,3.15v9.63h-2.16v-8.88c0-1.66-.35-2.83-1.05-3.51s-1.57-1.02-2.61-1.02c-.72,0-1.43,.18-2.13,.54-.7,.36-1.28,.93-1.74,1.71-.44,.78-.66,1.8-.66,3.06v8.1h-2.16Zm29.9-17.76l.48,1.92h-.21c-.94,0-1.67,.21-2.19,.63-.5,.42-.75,1.07-.75,1.95l-1.29-.69c0-.78,.17-1.45,.51-2.01,.34-.58,.79-1.02,1.35-1.32,.58-.32,1.23-.48,1.95-.48h.15Zm-4.5,15.96c1.4,0,2.49,.33,3.27,.99,.78,.64,1.17,1.49,1.17,2.55,0,.96-.31,1.79-.93,2.49-.6,.7-1.43,1.24-2.49,1.62-1.04,.4-2.22,.6-3.54,.6-2.24,0-3.93-.4-5.07-1.2-1.12-.78-1.68-1.74-1.68-2.88,0-.8,.27-1.52,.81-2.16,.54-.62,1.4-.98,2.58-1.08l-.15,.42c-.66-.18-1.22-.49-1.68-.93-.46-.44-.69-1.06-.69-1.86s.28-1.44,.84-2.04c.58-.6,1.44-.96,2.58-1.08l1.56,.72h-.39c-.92,.08-1.6,.32-2.04,.72-.42,.38-.63,.83-.63,1.35,0,.58,.21,1.02,.63,1.32,.42,.3,.99,.45,1.71,.45h4.14Zm-2.49,6.48c1.1,0,2.02-.13,2.76-.39,.74-.24,1.3-.57,1.68-.99,.38-.4,.57-.84,.57-1.32,0-.6-.24-1.08-.72-1.44-.46-.34-1.23-.51-2.31-.51h-4.35c-.68,0-1.26,.18-1.74,.54-.48,.38-.72,.88-.72,1.5,0,.78,.43,1.41,1.29,1.89s2.04,.72,3.54,.72Zm-.21-19.98c1.16,0,2.18,.22,3.06,.66,.88,.42,1.57,1.01,2.07,1.77,.5,.74,.75,1.6,.75,2.58s-.26,1.85-.78,2.61c-.5,.76-1.19,1.36-2.07,1.8-.88,.42-1.89,.63-3.03,.63-1.88,0-3.34-.47-4.38-1.41-1.02-.94-1.53-2.15-1.53-3.63,0-.98,.25-1.84,.75-2.58,.5-.76,1.19-1.35,2.07-1.77,.9-.44,1.93-.66,3.09-.66Zm0,1.74c-1.06,0-1.95,.3-2.67,.9-.7,.6-1.05,1.39-1.05,2.37s.36,1.78,1.08,2.4c.72,.6,1.6,.9,2.64,.9s1.91-.3,2.61-.9c.72-.62,1.08-1.42,1.08-2.4s-.35-1.77-1.05-2.37c-.7-.6-1.58-.9-2.64-.9Zm18.89,3.81c0-1.14-.3-2.03-.9-2.67-.6-.66-1.45-.99-2.55-.99-1,0-1.85,.24-2.55,.72-.7,.46-1.22,1.2-1.56,2.22l-1.77-1.08c.4-1.14,1.11-2.05,2.13-2.73,1.04-.68,2.31-1.02,3.81-1.02,1.06,0,2,.19,2.82,.57,.84,.36,1.5,.92,1.98,1.68,.5,.76,.75,1.72,.75,2.88v7.32c0,.82,.38,1.23,1.14,1.23,.16,0,.34,0,.54-.03,.2-.04,.37-.09,.51-.15l-.12,1.71c-.16,.08-.37,.15-.63,.21-.24,.06-.52,.09-.84,.09-.52,0-1-.1-1.44-.3-.42-.22-.76-.55-1.02-.99-.24-.46-.36-1.03-.36-1.71v-.42l.54,.06c-.22,.78-.61,1.43-1.17,1.95-.54,.5-1.17,.88-1.89,1.14-.7,.24-1.41,.36-2.13,.36-1.3,0-2.41-.33-3.33-.99-.92-.68-1.38-1.69-1.38-3.03,0-1.08,.34-1.98,1.02-2.7,.7-.74,1.72-1.25,3.06-1.53l5.73-1.2v1.8l-4.71,1.02c-.98,.2-1.71,.49-2.19,.87-.48,.38-.72,.92-.72,1.62s.24,1.23,.72,1.65c.5,.4,1.21,.6,2.13,.6,.54,0,1.07-.07,1.59-.21,.52-.16,.99-.4,1.41-.72s.75-.72,.99-1.2c.26-.5,.39-1.09,.39-1.77v-4.26Zm19.33-8.01l.48,1.92h-.21c-.94,0-1.67,.21-2.19,.63-.5,.42-.75,1.07-.75,1.95l-1.29-.69c0-.78,.17-1.45,.51-2.01,.34-.58,.79-1.02,1.35-1.32,.58-.32,1.23-.48,1.95-.48h.15Zm-4.5,15.96c1.4,0,2.49,.33,3.27,.99,.78,.64,1.17,1.49,1.17,2.55,0,.96-.31,1.79-.93,2.49-.6,.7-1.43,1.24-2.49,1.62-1.04,.4-2.22,.6-3.54,.6-2.24,0-3.93-.4-5.07-1.2-1.12-.78-1.68-1.74-1.68-2.88,0-.8,.27-1.52,.81-2.16,.54-.62,1.4-.98,2.58-1.08l-.15,.42c-.66-.18-1.22-.49-1.68-.93-.46-.44-.69-1.06-.69-1.86s.28-1.44,.84-2.04c.58-.6,1.44-.96,2.58-1.08l1.56,.72h-.39c-.92,.08-1.6,.32-2.04,.72-.42,.38-.63,.83-.63,1.35,0,.58,.21,1.02,.63,1.32s.99,.45,1.71,.45h4.14Zm-2.49,6.48c1.1,0,2.02-.13,2.76-.39,.74-.24,1.3-.57,1.68-.99,.38-.4,.57-.84,.57-1.32,0-.6-.24-1.08-.72-1.44-.46-.34-1.23-.51-2.31-.51h-4.35c-.68,0-1.26,.18-1.74,.54-.48,.38-.72,.88-.72,1.5,0,.78,.43,1.41,1.29,1.89s2.04,.72,3.54,.72Zm-.21-19.98c1.16,0,2.18,.22,3.06,.66,.88,.42,1.57,1.01,2.07,1.77,.5,.74,.75,1.6,.75,2.58s-.26,1.85-.78,2.61c-.5,.76-1.19,1.36-2.07,1.8-.88,.42-1.89,.63-3.03,.63-1.88,0-3.34-.47-4.38-1.41-1.02-.94-1.53-2.15-1.53-3.63,0-.98,.25-1.84,.75-2.58,.5-.76,1.19-1.35,2.07-1.77,.9-.44,1.93-.66,3.09-.66Zm0,1.74c-1.06,0-1.95,.3-2.67,.9-.7,.6-1.05,1.39-1.05,2.37s.36,1.78,1.08,2.4c.72,.6,1.6,.9,2.64,.9s1.91-.3,2.61-.9c.72-.62,1.08-1.42,1.08-2.4s-.35-1.77-1.05-2.37c-.7-.6-1.58-.9-2.64-.9Zm16.37,13.86c-1.36,0-2.57-.31-3.63-.93-1.04-.62-1.86-1.51-2.46-2.67-.6-1.18-.9-2.58-.9-4.2s.29-3.01,.87-4.17c.6-1.18,1.41-2.08,2.43-2.7,1.04-.62,2.22-.93,3.54-.93s2.48,.3,3.42,.9c.94,.6,1.66,1.42,2.16,2.46s.75,2.22,.75,3.54c0,.32,0,.6-.03,.84-.02,.24-.04,.45-.06,.63h-11.67v-1.92h10.71l-1.11,.24c0-1.02-.18-1.88-.54-2.58-.34-.72-.83-1.27-1.47-1.65-.62-.38-1.35-.57-2.19-.57-.96,0-1.8,.24-2.52,.72-.7,.48-1.24,1.16-1.62,2.04-.38,.88-.57,1.93-.57,3.15s.2,2.27,.6,3.15c.4,.88,.96,1.56,1.68,2.04,.74,.48,1.6,.72,2.58,.72,1.04,0,1.9-.22,2.58-.66,.7-.46,1.25-1.06,1.65-1.8l1.71,.99c-.36,.68-.83,1.28-1.41,1.8-.56,.5-1.22,.89-1.98,1.17-.76,.26-1.6,.39-2.52,.39Zm10.67-.3v-15h1.89l.15,2.55c.5-.96,1.19-1.67,2.07-2.13,.88-.48,1.81-.72,2.79-.72,1.08,0,2.08,.26,3,.78,.92,.5,1.6,1.28,2.04,2.34,.3-.7,.73-1.28,1.29-1.74,.58-.46,1.22-.8,1.92-1.02,.7-.24,1.38-.36,2.04-.36,.96,0,1.86,.2,2.7,.6,.84,.4,1.52,1.02,2.04,1.86,.54,.84,.81,1.91,.81,3.21v9.63h-2.16v-9.42c0-1.4-.35-2.41-1.05-3.03-.7-.64-1.56-.96-2.58-.96-.8,0-1.54,.2-2.22,.6-.68,.4-1.23,.98-1.65,1.74-.42,.76-.63,1.67-.63,2.73v8.34h-2.16v-9.42c0-1.4-.35-2.41-1.05-3.03-.7-.64-1.56-.96-2.58-.96-.68,0-1.37,.19-2.07,.57-.7,.36-1.28,.93-1.74,1.71-.46,.78-.69,1.78-.69,3v8.13h-2.16Zm34.04,.3c-1.36,0-2.57-.31-3.63-.93-1.04-.62-1.86-1.51-2.46-2.67-.6-1.18-.9-2.58-.9-4.2s.29-3.01,.87-4.17c.6-1.18,1.41-2.08,2.43-2.7,1.04-.62,2.22-.93,3.54-.93s2.48,.3,3.42,.9,1.66,1.42,2.16,2.46,.75,2.22,.75,3.54c0,.32-.01,.6-.03,.84-.02,.24-.04,.45-.06,.63h-11.67v-1.92h10.71l-1.11,.24c0-1.02-.18-1.88-.54-2.58-.34-.72-.83-1.27-1.47-1.65-.62-.38-1.35-.57-2.19-.57-.96,0-1.8,.24-2.52,.72-.7,.48-1.24,1.16-1.62,2.04-.38,.88-.57,1.93-.57,3.15s.2,2.27,.6,3.15c.4,.88,.96,1.56,1.68,2.04,.74,.48,1.6,.72,2.58,.72,1.04,0,1.9-.22,2.58-.66,.7-.46,1.25-1.06,1.65-1.8l1.71,.99c-.36,.68-.83,1.28-1.41,1.8-.56,.5-1.22,.89-1.98,1.17-.76,.26-1.6,.39-2.52,.39Zm10.67-.3v-15h1.89l.18,3.45-.33-.3c.42-1.2,1.11-2.07,2.07-2.61,.96-.56,2.02-.84,3.18-.84,1.02,0,1.94,.21,2.76,.63,.84,.42,1.51,1.05,2.01,1.89,.5,.82,.75,1.87,.75,3.15v9.63h-2.16v-8.88c0-1.66-.35-2.83-1.05-3.51-.7-.68-1.57-1.02-2.61-1.02-.72,0-1.43,.18-2.13,.54s-1.28,.93-1.74,1.71c-.44,.78-.66,1.8-.66,3.06v8.1h-2.16Zm20.73-19.23v15.12c0,.8,.2,1.4,.6,1.8,.4,.4,.93,.6,1.59,.6,.56,0,1.03-.1,1.41-.3,.4-.2,.76-.47,1.08-.81l.72,1.8c-.44,.42-.95,.75-1.53,.99-.58,.22-1.24,.33-1.98,.33-1.12,0-2.08-.31-2.88-.93-.78-.62-1.17-1.65-1.17-3.09v-14.91l2.16-.6Zm5.16,4.23v1.86h-10.14v-1.86h10.14Z"/>
    <path d="M201.23,58.05c0-17.88-5.37-23.18-23.45-23.2-11.64,0-23.29-.14-34.93,.08-4.34,.08-6.36-1.25-7.35-5.76C131.52,11.16,118.01,.03,100.76,0c-17.42-.05-30.61,10.78-34.81,29.03-1,4.34-2.86,5.98-7.32,5.9-12.45-.23-24.89-.11-37.35-.08C6.22,34.89,0,41.08,0,56.08v254.81c0,7.05,.68,14.04,1.91,20.95,8.2,46.5,48.88,88.87,107.44,84,26.31-2.19,48.54-13.3,66-33.37,18.1-20.81,25.88-45.36,25.89-72.64,0-41.56,0-83.13,0-124.69V58.05h0ZM100.86,4.01c16.68-.2,31.42,14.74,31.32,31.73-.11,16.79-14.27,30.61-31.42,30.65-17.46,.03-31.85-14.06-31.67-31.03,.19-17.07,14.45-31.14,31.77-31.34Zm96.33,301.18c-.03,20.07-3.11,39.42-12.83,57.52-29.02,54.02-104.51,66.35-148.53,23.75-20.24-19.59-31.07-43.55-31.06-72.03,0-42.36,0-84.73,0-127.08,0-43.97,0-87.93,0-131.9,0-12.41,4.15-16.52,16.68-16.55,12.45-.03,24.89,.13,37.34-.07,4.45-.07,6.69,1.04,7.89,5.91,3.79,15.37,18.14,26.01,34.25,26.2,14.88,.19,29.14-9.99,33.3-24.92,1.67-5.99,4.54-7.36,10.12-7.22,12.24,.33,24.48,.04,36.73,.12,10.98,.07,15.92,4.78,16.1,15.73,.2,13.04,.07,26.09,.07,39.14,0,70.46,.06,140.93-.04,211.4Z"/>
    <path d="M92.23,50.24c-2.29,0-4.35-.56-6.16-1.68-1.81-1.15-3.24-2.8-4.28-4.96s-1.56-4.77-1.56-7.84,.52-5.68,1.56-7.84,2.47-3.8,4.28-4.92c1.81-1.15,3.87-1.72,6.16-1.72s4.37,.57,6.16,1.72c1.81,1.12,3.24,2.76,4.28,4.92,1.04,2.16,1.56,4.77,1.56,7.84s-.52,5.68-1.56,7.84c-1.04,2.16-2.47,3.81-4.28,4.96-1.79,1.12-3.84,1.68-6.16,1.68Zm0-5.48c1.09,0,2.04-.31,2.84-.92,.83-.61,1.47-1.59,1.92-2.92,.48-1.33,.72-3.05,.72-5.16s-.24-3.83-.72-5.16c-.45-1.33-1.09-2.31-1.92-2.92-.8-.61-1.75-.92-2.84-.92s-2.01,.31-2.84,.92c-.8,.61-1.44,1.59-1.92,2.92-.45,1.33-.68,3.05-.68,5.16s.23,3.83,.68,5.16c.48,1.33,1.12,2.31,1.92,2.92,.83,.61,1.77,.92,2.84,.92Zm19.31,5V24.16l2.8,2.8h-8.4v-5.2h12.08v28h-6.48Z"/>
    <g class="cls-3">
      <g>
        <path class="cls-1" d="M100.54,266.78c.92,0,1.85-.04,2.77,0,3.05,.17,5.39,2.59,5.44,5.63,.02,.92,.06,1.84-.01,2.75-.08,1,.25,1.53,1.28,1.78,2.11,.52,4.07,1.45,5.98,2.48,.65,.35,1.1,.45,1.65-.21,.64-.76,1.43-1.4,2.14-2.1,2.28-2.22,5.64-2.37,8.03-.25,1.35,1.19,2.62,2.47,3.82,3.81,2.23,2.49,2.1,5.67-.26,8.06-.65,.65-1.28,1.32-1.97,1.93-.6,.53-.73,1.04-.31,1.77,1.11,1.9,1.96,3.93,2.53,6.06,.23,.85,.69,1.17,1.55,1.11,.8-.06,1.6-.01,2.4,0,3.54,.01,5.83,1.88,6.22,5.34,.24,2.09,.27,4.23-.09,6.32-.48,2.8-2.78,4.7-5.65,4.72-1.04,0-2.09,.03-3.13,0-.66-.02-1.04,.21-1.22,.87-.62,2.28-1.55,4.44-2.7,6.51-.3,.54-.26,.95,.2,1.38,.7,.66,1.37,1.34,2.05,2.02,2.51,2.54,2.61,5.7,.23,8.33-1.01,1.13-2.07,2.22-3.18,3.26-2.86,2.66-6.2,2.57-8.95-.18-.17-.17-.33-.35-.5-.52-1.05-1.1-2.14-1.17-3.27-.19-.8,.69-1.77,.76-2.36,.11-.71-.78-.66-1.62,.04-2.36,.88-.92,1.8-1.82,2.77-2.65,.83-.71,1.7-.57,2.47,.18,1.11,1.09,2.21,2.2,3.33,3.29,1.26,1.24,2.66,1.35,3.94,.2,1.16-1.04,2.28-2.14,3.31-3.3,1.25-1.4,1.16-2.54-.15-3.88-1.06-1.08-2.14-2.16-3.23-3.22-.84-.82-.96-1.68-.33-2.69,1.7-2.73,2.96-5.65,3.68-8.8,.26-1.13,.96-1.59,2.07-1.58,1.56,0,3.13,0,4.69,0,1.7-.01,2.73-.9,2.83-2.58,.09-1.55,.09-3.11,0-4.66-.1-1.71-1.2-2.66-2.9-2.68-1.56-.01-3.13-.01-4.69,0-1.12,0-1.77-.49-2.01-1.63-.66-3.03-1.9-5.83-3.5-8.48-.86-1.42-.79-1.92,.43-3.13,1.05-1.04,2.1-2.08,3.13-3.14,1.15-1.19,1.23-2.37,.12-3.61-1.09-1.22-2.26-2.38-3.48-3.47-1.24-1.11-2.66-.99-3.85,.18-1.09,1.07-2.17,2.13-3.23,3.22-.85,.87-1.69,1.03-2.77,.34-2.61-1.68-5.48-2.81-8.5-3.55-1.59-.39-1.89-.8-1.89-2.42-.01-1.51,.02-3.03-.01-4.55-.02-1.5-.95-2.5-2.44-2.56-1.68-.06-3.37-.07-5.05,0-1.57,.07-2.47,1.08-2.49,2.64-.02,1.56-.03,3.11,0,4.67,.02,1.17-.46,1.88-1.63,2.15-3.19,.74-6.17,1.99-8.96,3.7-.92,.57-1.73,.44-2.49-.33-1.07-1.08-2.15-2.15-3.24-3.2-1.44-1.39-2.76-1.39-4.19-.02-.98,.94-1.94,1.9-2.89,2.88-1.48,1.51-1.47,2.64,0,4.11,1.02,1.02,2.05,2.02,3.06,3.05,1.03,1.05,1.1,1.64,.38,2.86-1.64,2.76-2.95,5.66-3.63,8.82-.22,1.02-.85,1.48-1.88,1.48-1.56,0-3.13,0-4.69,0-1.83,0-2.93,1-3.02,2.82-.07,1.47-.07,2.95,0,4.43,.08,1.75,1.1,2.66,2.86,2.67,1.52,.01,3.05,.01,4.57,0,1.21,0,1.92,.51,2.2,1.74,.68,2.98,1.87,5.76,3.47,8.37,.89,1.46,.83,1.96-.35,3.15-1.01,1.02-2.05,2.02-3.06,3.05-1.27,1.28-1.4,2.34-.27,3.69,1.1,1.32,2.31,2.56,3.67,3.61,1.24,.95,2.41,.87,3.57-.21,1.14-1.07,2.21-2.2,3.34-3.28,1.06-1.03,1.84-1.04,2.9-.04,.84,.8,1.68,1.6,2.48,2.44,.73,.75,.77,1.75,.1,2.34-.74,.64-1.52,.6-2.28-.02-1.22-.99-2.39-.93-3.52,.18-3.38,3.36-6.5,3.35-9.86-.02-.9-.9-1.86-1.77-2.7-2.72-2.36-2.66-2.2-5.83,.32-8.33,.82-.81,2.02-1.47,2.31-2.53,.28-1.05-.85-1.97-1.23-3.01-.51-1.38-1.1-2.74-1.53-4.15-.24-.81-.63-1.09-1.45-1.03-.88,.06-1.76,.02-2.65,.01-3.39,0-5.56-1.79-6.01-5.12-.28-2.09-.3-4.23,.03-6.32,.5-3.09,2.71-4.92,5.84-4.95,1,0,2.01-.03,3.01,0,.68,.03,1.01-.26,1.2-.9,.65-2.23,1.49-4.38,2.66-6.39,.37-.63,.23-1.1-.3-1.57-.71-.64-1.38-1.34-2.06-2.02-2.33-2.36-2.45-5.62-.23-8.07,1.18-1.3,2.44-2.55,3.74-3.73,2.41-2.18,5.81-2.07,8.12,.2,.71,.7,1.43,1.4,2.12,2.12,.46,.48,.93,.55,1.5,.23,2.09-1.12,4.25-2.07,6.55-2.68,.67-.18,.86-.59,.84-1.24-.03-1.04-.02-2.07,0-3.11,.05-3.13,2.37-5.53,5.52-5.67,.92-.04,1.84,0,2.77,0h0Z"/>
        <path class="cls-1" d="M100.45,323.92c-8.53,0-15.39-6.81-15.4-15.26,0-8.55,6.91-15.33,15.61-15.32,8.38,.01,15.29,6.92,15.28,15.29,0,8.48-6.91,15.31-15.5,15.3Zm.04-3.2c6.76,0,12.2-5.38,12.21-12.04,0-6.74-5.46-12.15-12.25-12.12-6.74,.02-12.16,5.43-12.14,12.11,.02,6.71,5.43,12.06,12.19,12.05h0Z"/>
        <path class="cls-1" d="M100.79,349.04c-3.33,0-6.65,0-9.98,0-2.47,0-3.66-1.23-3.65-3.7,0-.99-.01-1.99,.02-2.99,.03-.93,.53-1.52,1.48-1.56,.93-.04,1.54,.46,1.64,1.4,.09,.87,.09,1.75,.09,2.63,0,.7,.3,1.02,1.01,1.01,6.38,0,12.75,0,19.12,0,.75,0,.98-.36,.96-1.04-.02-.84-.02-1.68,.01-2.51,.04-.88,.52-1.42,1.41-1.49,.89-.07,1.52,.39,1.64,1.24,.24,1.62,.32,3.27-.15,4.86-.4,1.37-1.62,2.14-3.27,2.15-3.45,.02-6.9,0-10.34,0h0Z"/>
        <path class="cls-1" d="M100.62,351.75c2.72,0,5.45,0,8.17,0,1.44,0,2.11,.51,2.12,1.53,.01,1.04-.71,1.66-2.05,1.67-5.57,.02-11.13,.02-16.7,0-1.35,0-2.07-.62-2.07-1.64,0-1.01,.73-1.56,2.12-1.56,2.8,0,5.61,0,8.41,0h0Z"/>
        <path class="cls-1" d="M100.49,360.76c-1.85,0-3.69,.01-5.54,0-1.2-.01-1.89-.57-1.94-1.5-.06-.98,.65-1.67,1.91-1.68,3.73-.04,7.46-.04,11.19,0,1.23,0,1.93,.71,1.88,1.71-.05,.92-.75,1.47-1.96,1.48-1.84,.02-3.69,0-5.54,0h0Z"/>
        <path class="cls-1" d="M98.79,330.57c.04-.83,.02-1.55,.13-2.26,.13-.88,.6-1.48,1.59-1.45,.95,.03,1.47,.53,1.57,1.46,.16,1.51,.16,3.01,0,4.51-.09,.9-.58,1.51-1.52,1.53-1,.02-1.53-.57-1.62-1.55-.07-.79-.1-1.58-.14-2.26h0Z"/>
        <path class="cls-1" d="M98.78,286.74c.06-.87,.07-1.67,.17-2.45,.11-.88,.7-1.36,1.55-1.39,.88-.03,1.44,.51,1.55,1.36,.22,1.62,.21,3.26-.02,4.88-.12,.83-.68,1.23-1.51,1.24-.84,.01-1.4-.41-1.53-1.22-.13-.82-.15-1.66-.2-2.42h0Z"/>
        <path class="cls-1" d="M122.65,310.22c-.76,0-1.52,.05-2.28-.01-.97-.07-1.59-.63-1.58-1.61,.01-.91,.61-1.51,1.52-1.54,1.55-.06,3.12-.07,4.67,.02,.94,.05,1.39,.71,1.36,1.64-.03,.89-.55,1.41-1.42,1.48-.75,.06-1.52,.01-2.28,.01h0s0,0,0,0Z"/>
        <path class="cls-1" d="M83.5,290c.12,.04,.44,.06,.63,.22,1.32,1.09,2.55,2.29,3.63,3.62,.51,.62,.36,1.38-.22,1.95-.54,.53-1.26,.65-1.87,.22-1.43-1.02-2.67-2.28-3.72-3.67-.75-.99,.14-2.35,1.55-2.33h0Z"/>
        <path class="cls-1" d="M78.33,310.23c-.72,0-1.44,.04-2.15-.01-.91-.07-1.48-.55-1.51-1.51-.03-1.01,.52-1.61,1.49-1.65,1.51-.07,3.03-.06,4.54,0,.92,.04,1.49,.66,1.49,1.56,0,.91-.56,1.49-1.48,1.58-.79,.07-1.59,.01-2.39,.01v.02h0Z"/>
        <path class="cls-1" d="M86.26,321.08c1.38-.04,2.24,1.27,1.53,2.31-.97,1.42-2.32,2.51-3.62,3.63-.54,.46-1.31,.38-1.88-.13-.52-.46-.81-1.12-.4-1.72,1.05-1.56,2.41-2.84,3.91-3.97,.14-.11,.38-.1,.47-.12h0Z"/>
        <path class="cls-1" d="M114.6,321.07c1.02,.03,4.68,3.66,4.67,4.65-.01,.59-.27,1.1-.82,1.36-.62,.3-1.3,.3-1.81-.18-1.16-1.09-2.28-2.23-3.36-3.4-.44-.48-.42-1.11-.07-1.67,.31-.52,.78-.79,1.39-.77h0Z"/>
        <path class="cls-1" d="M117.51,290c.78-.01,1.24,.25,1.55,.78,.34,.59,.31,1.21-.12,1.68-1.12,1.19-2.27,2.36-3.49,3.46-.61,.55-1.38,.42-1.97-.13-.6-.55-.76-1.31-.25-1.94,1.08-1.33,2.31-2.54,3.65-3.62,.2-.16,.52-.18,.63-.22h0Z"/>
        <path class="cls-1" d="M100.35,343.19c-.78-.12-1.36-.56-1.4-1.51-.04-.95,.58-1.61,1.5-1.64,.92-.02,1.57,.62,1.57,1.56,0,.91-.66,1.59-1.68,1.6h0Z"/>
      </g>
    </g>
  </g>
</svg>