<?xml version="1.0" encoding="UTF-8"?>
<svg id="Layer_2" data-name="Layer 2" xmlns="http://www.w3.org/2000/svg" xmlns:xlink="http://www.w3.org/1999/xlink" viewBox="0 0 201.24 416.23">
  <defs>
    <style>
      .cls-1 {
        fill: #fff;
      }

      .cls-2 {
        fill: #387ef0;
      }

      .cls-3 {
        clip-path: url(#clippath);
      }

      .cls-4 {
        fill: none;
      }
    </style>
    <clipPath id="clippath">
      <rect class="cls-4" x="60.69" y="256.26" width="85" height="114"/>
    </clipPath>
  </defs>
  <g id="Layer_1-2" data-name="Layer 1">
    <path class="cls-2" d="M182.69,313.26c0,43.91-35.59,79.5-79.5,79.5s-79.5-35.59-79.5-79.5,35.59-79.5,79.5-79.5,79.5,35.59,79.5,79.5Z"/>
    <path d="M201.23,58.05c0-17.88-5.37-23.18-23.45-23.2-11.64,0-23.29-.14-34.93,.08-4.34,.08-6.36-1.25-7.35-5.76C131.52,11.16,118.01,.03,100.76,0c-17.42-.05-30.61,10.78-34.81,29.03-1,4.34-2.86,5.98-7.32,5.9-12.45-.23-24.89-.11-37.35-.08C6.22,34.89,0,41.08,0,56.08v254.81c0,7.05,.68,14.04,1.91,20.95,8.2,46.5,48.88,88.87,107.44,84,26.31-2.19,48.54-13.3,66-33.37,18.1-20.81,25.88-45.36,25.89-72.64,0-41.56,0-83.13,0-124.69V58.05h0ZM100.86,4.01c16.68-.2,31.42,14.74,31.32,31.73-.11,16.79-14.27,30.61-31.42,30.65-17.46,.03-31.85-14.06-31.67-31.03,.19-17.07,14.45-31.14,31.77-31.34Zm96.33,301.18c-.03,20.07-3.11,39.42-12.83,57.52-29.02,54.02-104.51,66.35-148.53,23.75-20.24-19.59-31.07-43.55-31.06-72.03,0-42.36,0-84.73,0-127.08,0-43.97,0-87.93,0-131.9,0-12.41,4.15-16.52,16.68-16.55,12.45-.03,24.89,.13,37.34-.07,4.45-.07,6.69,1.04,7.89,5.91,3.79,15.37,18.14,26.01,34.25,26.2,14.88,.19,29.14-9.99,33.3-24.92,1.67-5.99,4.54-7.36,10.12-7.22,12.24,.33,24.48,.04,36.73,.12,10.98,.07,15.92,4.78,16.1,15.73,.2,13.04,.07,26.09,.07,39.14,0,70.46,.06,140.93-.04,211.4Z"/>
    <path d="M37.05,126.52v-19.8h13.29v2.01h-11.13v6.72h8.7v2.04h-8.7v7.02h11.55v2.01h-13.71Zm19.06-15l4.32,6.33,.21,.21,5.91,8.46h-2.64l-4.59-6.63-.27-.33-5.67-8.04h2.73Zm10.26,0l-5.61,7.92-.21,.03-4.95,7.05h-2.52l6.18-8.52,.21-.03,4.38-6.45h2.52Zm9.19,15.3c-1.36,0-2.57-.31-3.63-.93-1.04-.62-1.86-1.51-2.46-2.67-.6-1.18-.9-2.58-.9-4.2s.29-3.01,.87-4.17c.6-1.18,1.41-2.08,2.43-2.7,1.04-.62,2.22-.93,3.54-.93s2.48,.3,3.42,.9c.94,.6,1.66,1.42,2.16,2.46s.75,2.22,.75,3.54c0,.32-.01,.6-.03,.84-.02,.24-.04,.45-.06,.63h-11.67v-1.92h10.71l-1.11,.24c0-1.02-.18-1.88-.54-2.58-.34-.72-.83-1.27-1.47-1.65-.62-.38-1.35-.57-2.19-.57-.96,0-1.8,.24-2.52,.72-.7,.48-1.24,1.16-1.62,2.04-.38,.88-.57,1.93-.57,3.15s.2,2.27,.6,3.15,.96,1.56,1.68,2.04c.74,.48,1.6,.72,2.58,.72,1.04,0,1.9-.22,2.58-.66,.7-.46,1.25-1.06,1.65-1.8l1.71,.99c-.36,.68-.83,1.28-1.41,1.8-.56,.5-1.22,.89-1.98,1.17-.76,.26-1.6,.39-2.52,.39Zm16.55-15.6c1,0,1.88,.17,2.64,.51,.78,.32,1.44,.78,1.98,1.38,.54,.58,.97,1.28,1.29,2.1l-2.04,.99c-.28-1-.75-1.76-1.41-2.28-.66-.54-1.5-.81-2.52-.81-.96,0-1.8,.24-2.52,.72-.7,.46-1.24,1.13-1.62,2.01-.38,.88-.57,1.94-.57,3.18s.19,2.28,.57,3.18c.4,.88,.95,1.56,1.65,2.04,.72,.46,1.56,.69,2.52,.69,.76,0,1.42-.12,1.98-.36,.56-.26,1.02-.63,1.38-1.11s.61-1.06,.75-1.74l1.98,.69c-.3,.92-.73,1.71-1.29,2.37-.56,.66-1.25,1.17-2.07,1.53-.8,.34-1.71,.51-2.73,.51-1.34,0-2.53-.31-3.57-.93s-1.86-1.51-2.46-2.67c-.58-1.18-.87-2.58-.87-4.2s.3-3.01,.9-4.17c.6-1.18,1.42-2.08,2.46-2.7s2.23-.93,3.57-.93Zm15.36,15.6c-.94,0-1.81-.18-2.61-.54-.8-.38-1.45-.97-1.95-1.77-.48-.8-.72-1.84-.72-3.12v-9.87h2.16v9.3c0,1.38,.29,2.41,.87,3.09,.58,.68,1.51,1.02,2.79,1.02,.58,0,1.13-.11,1.65-.33,.54-.22,1.01-.54,1.41-.96,.42-.44,.75-.98,.99-1.62,.24-.64,.36-1.38,.36-2.22v-8.28h2.16v15h-1.89l-.12-2.49c-.32,.62-.73,1.14-1.23,1.56-.48,.42-1.05,.73-1.71,.93-.64,.2-1.36,.3-2.16,.3Zm15.72-19.53v15.12c0,.8,.2,1.4,.6,1.8s.93,.6,1.59,.6c.56,0,1.03-.1,1.41-.3,.4-.2,.76-.47,1.08-.81l.72,1.8c-.44,.42-.95,.75-1.53,.99-.58,.22-1.24,.33-1.98,.33-1.12,0-2.08-.31-2.88-.93-.78-.62-1.17-1.65-1.17-3.09v-14.91l2.16-.6Zm5.16,4.23v1.86h-10.14v-1.86h10.14Zm5.6,0v15h-2.16v-15h2.16Zm-.93-2.88c-.54,0-.98-.16-1.32-.48-.32-.34-.48-.78-.48-1.32s.16-.97,.48-1.29c.34-.34,.78-.51,1.32-.51s.97,.17,1.29,.51c.34,.32,.51,.75,.51,1.29s-.17,.98-.51,1.32c-.32,.32-.75,.48-1.29,.48Zm12.36,2.58c1.36,0,2.56,.31,3.6,.93,1.04,.62,1.86,1.52,2.46,2.7,.6,1.16,.9,2.55,.9,4.17s-.3,3.02-.9,4.2c-.6,1.16-1.42,2.05-2.46,2.67-1.04,.62-2.24,.93-3.6,.93s-2.54-.31-3.6-.93c-1.04-.62-1.86-1.51-2.46-2.67-.6-1.18-.9-2.58-.9-4.2s.3-3.01,.9-4.17c.6-1.18,1.42-2.08,2.46-2.7,1.06-.62,2.26-.93,3.6-.93Zm0,1.86c-.98,0-1.83,.24-2.55,.72s-1.28,1.16-1.68,2.04c-.38,.88-.57,1.94-.57,3.18s.19,2.28,.57,3.18c.4,.88,.96,1.56,1.68,2.04s1.57,.72,2.55,.72,1.85-.24,2.55-.72c.72-.48,1.27-1.16,1.65-2.04,.4-.9,.6-1.96,.6-3.18s-.2-2.3-.6-3.18c-.38-.88-.93-1.56-1.65-2.04-.7-.48-1.55-.72-2.55-.72Zm11.43,13.44v-15h1.89l.18,3.45-.33-.3c.42-1.2,1.11-2.07,2.07-2.61,.96-.56,2.02-.84,3.18-.84,1.02,0,1.94,.21,2.76,.63,.84,.42,1.51,1.05,2.01,1.89,.5,.82,.75,1.87,.75,3.15v9.63h-2.16v-8.88c0-1.66-.35-2.83-1.05-3.51-.7-.68-1.57-1.02-2.61-1.02-.72,0-1.43,.18-2.13,.54-.7,.36-1.28,.93-1.74,1.71-.44,.78-.66,1.8-.66,3.06v8.1h-2.16Z"/>
    <path d="M86.23,49.96c-2.29,0-4.35-.56-6.16-1.68-1.81-1.15-3.24-2.8-4.28-4.96s-1.56-4.77-1.56-7.84,.52-5.68,1.56-7.84,2.47-3.8,4.28-4.92c1.81-1.15,3.87-1.72,6.16-1.72s4.37,.57,6.16,1.72c1.81,1.12,3.24,2.76,4.28,4.92s1.56,4.77,1.56,7.84-.52,5.68-1.56,7.84-2.47,3.81-4.28,4.96c-1.79,1.12-3.84,1.68-6.16,1.68Zm0-5.48c1.09,0,2.04-.31,2.84-.92,.83-.61,1.47-1.59,1.92-2.92,.48-1.33,.72-3.05,.72-5.16s-.24-3.83-.72-5.16c-.45-1.33-1.09-2.31-1.92-2.92-.8-.61-1.75-.92-2.84-.92s-2.01,.31-2.84,.92c-.8,.61-1.44,1.59-1.92,2.92-.45,1.33-.68,3.05-.68,5.16s.23,3.83,.68,5.16c.48,1.33,1.12,2.31,1.92,2.92,.83,.61,1.77,.92,2.84,.92Zm14.83-.88v-4.36s13.2-17.76,13.2-17.76h6.8s-12.92,17.76-12.92,17.76l-3.16-.92h22.04v5.28h-25.96Zm15.08,5.88v-5.88s.2-5.28,.2-5.28v-5.24h6.12v16.4h-6.32Z"/>
    <g class="cls-3">
      <g>
        <path class="cls-1" d="M139.69,314.21c.03-12.42-.01-24.84,.06-37.25,0-1.69-.49-2.87-1.66-4.02-4.89-4.85-9.77-9.71-14.52-14.7-1.42-1.49-2.87-1.98-4.86-1.97-13.7,.07-27.41,.03-41.12,.04-6.11,0-8.32,2.32-8.32,8.64,0,14.61,0,29.23,0,43.85,0,14.94-.01,29.89,0,44.83,0,5.27,2.57,7.84,7.79,7.84,12.18,.02,24.37,0,36.55,0,.65,0,1.31,.02,1.96-.04,.71-.07,1.24-.47,1.24-1.25,0-.78-.56-1.19-1.24-1.27-.86-.1-1.74-.06-2.61-.06-11.97,0-23.93,0-35.9,0-3.73,0-5.18-1.39-5.18-5.08-.02-29.89-.02-59.78,0-89.67,0-3.72,1.43-5.2,5.13-5.21,13.38-.04,26.76,.03,40.14-.07,2.11-.02,2.56,.69,2.49,2.64-.14,3.95,.08,7.92-.09,11.86-.11,2.52,.82,3.25,3.22,3.14,3.69-.18,7.41,.17,11.09-.12,2.86-.22,3.33,.85,3.3,3.48-.15,11.43-.08,22.86-.04,34.28,0,1.15-.67,3.08,1.36,3.02,1.69-.04,1.2-1.79,1.2-2.91Zm-15.86-40.43c-1.28,.02-1.68-.47-1.66-1.73,.06-3.49,.02-6.98,.02-10.1,3.84,3.89,7.8,7.91,11.65,11.81-2.96,0-6.49-.04-10.02,.02Z"/>
        <path class="cls-1" d="M141.73,328.76c.05,.79,.09,1.66-.84,1.88-1,.24-1.65-.3-1.75-1.37-.23-2.42-1.63-3.74-3.92-4.07-1.1-.16-1.62-.64-1.4-1.69,.19-.92,.96-1.01,1.79-.98,2.88,.11,6.09,3.35,6.13,6.23Z"/>
        <path class="cls-1" d="M145.22,326.29c-1.52-4.91-5.83-7.95-10.82-7.72-5.11,.24-9.24,3.91-10.19,9.38-.57,3.31-1.79,6.27-3.62,9.03-.73,1.1-1.31,1.5-2.41,.26-1.23-1.39-2.96-2.06-4.67-.96-1.39,.89-2.37,.75-3.7-.15-1.49-1-3.22-.63-4.54,.49-.34,.25-1.05,.84-1.47,1.87-.28,.67-.32,1.28-.32,1.67,3.22,3.67,6.45,7.33,9.67,11,3.42,3.49,6.83,6.97,10.25,10.46,.56-.03,2.84-.21,4.34-2.02,.3-.36,.89-1.11,1.05-2.21,.14-.96-.09-1.95-.63-2.96-.44-.82-1.15-1.4-.3-2.55,1.43-1.95,1.02-3.99-.68-5.6-1.04-.99-.75-1.54,.23-2.21,2.8-1.94,5.83-3.23,9.21-3.8,5.45-.92,9.07-5.34,9.09-11.55-.06-.31-.15-1.41-.47-2.43h0Zm-31.31,12.89c.27-.4,.84-.59,1.23-.84,.42,.24,.75,.34,.97,.56,3.15,3.13,6.31,6.26,9.43,9.43,.58,.59,.72,1.4,.15,2.08-.86,1.03-1.32-.06-1.76-.5-3.16-3.13-6.28-6.31-9.39-9.49-.33-.34-1.03-.65-.64-1.25Zm11.92,18.58c-.69,.72-1.15-.08-1.55-.49-5.61-5.65-11.22-11.32-16.81-16.99-.34-.35-.99-.62-.74-1.28,.23-.6,.8-.67,1.36-.67,.99,.05,1.48,.84,2.08,1.44,4.85,4.88,9.68,9.76,14.51,14.65,.45,.46,.94,.93,1.25,1.48,.34,.59,.37,1.36-.11,1.86Zm10.78-20.17c-4.02,.7-7.75,1.99-10.92,4.59-1.26,1.03-1.99,.68-2.95-.35-.88-.95-1.54-1.56-.43-2.94,2.5-3.1,3.83-6.75,4.51-10.71,.79-4.6,4.83-7.52,9.16-6.94,4.16,.56,7.15,4.1,7.1,8.41-.05,3.84-2.68,7.29-6.47,7.94Z"/>
        <path class="cls-1" d="M60.69,317.56c0-15.05,0-30.1,0-45.15,0-3.81,1.87-6.5,4.96-7.17,1.03-.23,2.42-.57,2.78,.85,.31,1.24-.83,1.47-1.86,1.7-2.38,.53-3.29,2.17-3.28,4.57,.02,30.21,.02,60.42,0,90.62,0,3.17,1.62,4.73,4.57,4.74,18.59,.05,37.19,.03,55.78,.03,2.67,0,4.26-1.33,4.8-3.97,.15-.76,.38-1.66,1.37-1.43,.98,.22,1.27,1.05,1.09,2.06-.53,2.99-2.14,5-5.14,5.65-1.05,.22-2.16,.2-3.24,.2-17.72,.01-35.45,.01-53.17,0-6.69,0-8.65-2.02-8.65-8.87,0-14.61,0-29.22,0-43.83Z"/>
        <path class="cls-1" d="M127.99,301.44c-.29-12.69-11.19-23.03-23.93-22.71-13.29,.33-23.39,11.1-23.05,24.59,.32,12.7,11.11,22.95,23.94,22.71,13.22-.24,23.35-11.05,23.04-24.6Zm-23.53,22.03c-11.57-.07-20.86-9.49-20.84-21.13,.02-11.62,9.46-21.11,20.94-21.06,11.54,.05,20.82,9.48,20.83,21.16,0,11.6-9.44,21.1-20.93,21.03Z"/>
        <path class="cls-1" d="M94.37,352.19c3.9,0,7.81,0,11.71,0,1.02,0,2.15,.05,2.13,1.35-.02,1.3-1.17,1.3-2.18,1.3-7.7-.01-15.4,0-23.1,0-.99,0-2.15,.08-2.12-1.35,.03-1.4,1.19-1.29,2.17-1.29,3.8,0,7.59,0,11.39,0h0Z"/>
        <path class="cls-1" d="M139.71,349.61c0,1.2,0,2.41,0,3.61-.01,6.19-3.46,9.14-9.6,8.25-.79-.11-1.57-.13-1.56-1.19,0-.94,.63-1.25,1.45-1.44,4.73-1.08,7.09-4.09,7.09-9.03,0-1.97,0-3.94,0-5.91,0-1.01,.05-2.19,1.36-2.13,1.24,.06,1.27,1.23,1.26,2.25-.02,1.86,0,3.72,0,5.58Z"/>
        <path class="cls-1" d="M90.44,346.67c2.39,0,4.77-.02,7.16,.01,.75,0,1.61,.04,1.68,1.1,.08,1.18-.77,1.49-1.7,1.5-4.99,.03-9.97,.03-14.96,.02-.93,0-1.82-.24-1.84-1.37-.02-1.24,.98-1.26,1.86-1.26,2.6-.01,5.2,0,7.81,0h0Z"/>
        <path class="cls-1" d="M140.88,330.64c-1,.24-1.65-.3-1.75-1.37-.23-2.42-1.63-3.74-3.92-4.07-1.1-.16-1.62-.64-1.4-1.69,.19-.92,.96-1.01,1.79-.98,2.88,.11,6.09,3.35,6.13,6.23,.05,.79,.09,1.66-.84,1.88Z"/>
        <path class="cls-1" d="M140.88,330.64c-1,.24-1.65-.3-1.75-1.37-.23-2.42-1.63-3.74-3.92-4.07-1.1-.16-1.62-.64-1.4-1.69,.19-.92,.96-1.01,1.79-.98,2.88,.11,6.09,3.35,6.13,6.23,.05,.79,.09,1.66-.84,1.88Z"/>
        <path class="cls-1" d="M104.26,282.97c-10.44,.1-18.88,8.78-18.87,19.41,.02,10.77,8.63,19.5,19.18,19.44,10.62-.07,19.09-8.78,19.03-19.6-.05-10.75-8.69-19.35-19.35-19.25Zm-.05,36.2c-9.21-.14-16.44-7.88-16.2-17.33,.24-9.22,7.77-16.43,16.95-16.22,9.03,.2,16.3,7.95,16.07,17.14-.22,9.24-7.73,16.56-16.82,16.42Z"/>
        <path class="cls-1" d="M115.38,296.34c-.39,.49-.79,1.14-1.31,1.67-3.52,3.58-7.12,7.09-10.57,10.74-1.41,1.49-2.43,1.4-3.73-.03-1.54-1.7-3.24-3.24-4.81-4.91-.68-.73-2.04-1.53-.9-2.68,1.26-1.27,2.08,.15,2.89,.94,1.17,1.14,2.4,2.25,3.45,3.5,.94,1.12,1.54,1.02,2.51,0,3.17-3.32,6.44-6.53,9.67-9.78,.54-.54,1.06-1.2,1.94-.87,.52,.2,.85,.63,.88,1.43Z"/>
      </g>
    </g>
  </g>
</svg>