<?xml version="1.0" encoding="UTF-8"?>
<svg id="Layer_2" data-name="Layer 2" xmlns="http://www.w3.org/2000/svg" xmlns:xlink="http://www.w3.org/1999/xlink" viewBox="0 0 201.24 416.23">
  <defs>
    <style>
      .cls-1 {
        fill: #fff;
      }

      .cls-2 {
        fill: #387ef0;
      }

      .cls-3 {
        clip-path: url(#clippath);
      }

      .cls-4 {
        fill: none;
      }
    </style>
    <clipPath id="clippath">
      <rect class="cls-4" x="57.07" y="271.52" width="87.11" height="97.66"/>
    </clipPath>
  </defs>
  <g id="Layer_1-2" data-name="Layer 1">
    <path class="cls-2" d="M180.12,313.26c0,43.91-35.59,79.5-79.5,79.5s-79.5-35.59-79.5-79.5,35.59-79.5,79.5-79.5,79.5,35.59,79.5,79.5Z"/>
    <path d="M201.23,58.05c0-17.88-5.37-23.18-23.45-23.2-11.64,0-23.29-.14-34.93,.08-4.34,.08-6.36-1.25-7.35-5.76C131.52,11.16,118.01,.03,100.76,0c-17.42-.05-30.61,10.78-34.81,29.03-1,4.34-2.86,5.98-7.32,5.9-12.45-.23-24.89-.11-37.35-.08C6.22,34.89,0,41.08,0,56.08v254.81c0,7.05,.68,14.04,1.91,20.95,8.2,46.5,48.88,88.87,107.44,84,26.31-2.19,48.54-13.3,66-33.37,18.1-20.81,25.88-45.36,25.89-72.64,0-41.56,0-83.13,0-124.69V58.05h0ZM100.86,4.01c16.68-.2,31.42,14.74,31.32,31.73-.11,16.79-14.27,30.61-31.42,30.65-17.46,.03-31.85-14.06-31.67-31.03,.19-17.07,14.45-31.14,31.77-31.34Zm96.33,301.18c-.03,20.07-3.11,39.42-12.83,57.52-29.02,54.02-104.51,66.35-148.53,23.75-20.24-19.59-31.07-43.55-31.06-72.03,0-42.36,0-84.73,0-127.08,0-43.97,0-87.93,0-131.9,0-12.41,4.15-16.52,16.68-16.55,12.45-.03,24.89,.13,37.34-.07,4.45-.07,6.69,1.04,7.89,5.91,3.79,15.37,18.14,26.01,34.25,26.2,14.88,.19,29.14-9.99,33.3-24.92,1.67-5.99,4.54-7.36,10.12-7.22,12.24,.33,24.48,.04,36.73,.12,10.98,.07,15.92,4.78,16.1,15.73,.2,13.04,.07,26.09,.07,39.14,0,70.46,.06,140.93-.04,211.4Z"/>
    <path d="M33.83,126.37h-2.31l-2.1-5.67h-8.76l-2.1,5.67h-2.28l7.5-19.8h2.58l7.47,19.8Zm-12.42-7.71h7.26l-3.63-9.99-3.63,9.99Zm20.76,8.01c-1.4,0-2.68-.31-3.84-.93-1.16-.62-2.04-1.5-2.64-2.64l1.8-1.32c.4,.96,1.01,1.7,1.83,2.22,.84,.52,1.84,.78,3,.78,1.04,0,1.86-.22,2.46-.66,.62-.44,.93-1.02,.93-1.74,0-.46-.14-.87-.42-1.23-.28-.38-.81-.66-1.59-.84l-3.36-.75c-1.4-.32-2.4-.82-3-1.5-.6-.68-.9-1.53-.9-2.55,0-.8,.22-1.53,.66-2.19,.46-.68,1.11-1.22,1.95-1.62,.84-.42,1.82-.63,2.94-.63,1.4,0,2.58,.3,3.54,.9,.98,.58,1.7,1.41,2.16,2.49l-1.77,1.17c-.32-.94-.85-1.62-1.59-2.04-.74-.42-1.52-.63-2.34-.63-.7,0-1.31,.11-1.83,.33-.52,.2-.92,.49-1.2,.87-.26,.36-.39,.78-.39,1.26s.15,.89,.45,1.29c.32,.4,.89,.69,1.71,.87l3.51,.78c1.34,.3,2.28,.76,2.82,1.38,.54,.62,.81,1.4,.81,2.34,0,1.4-.53,2.52-1.59,3.36-1.04,.82-2.41,1.23-4.11,1.23Zm15.09,0c-1.4,0-2.68-.31-3.84-.93-1.16-.62-2.04-1.5-2.64-2.64l1.8-1.32c.4,.96,1.01,1.7,1.83,2.22,.84,.52,1.84,.78,3,.78,1.04,0,1.86-.22,2.46-.66,.62-.44,.93-1.02,.93-1.74,0-.46-.14-.87-.42-1.23-.28-.38-.81-.66-1.59-.84l-3.36-.75c-1.4-.32-2.4-.82-3-1.5-.6-.68-.9-1.53-.9-2.55,0-.8,.22-1.53,.66-2.19,.46-.68,1.11-1.22,1.95-1.62,.84-.42,1.82-.63,2.94-.63,1.4,0,2.58,.3,3.54,.9,.98,.58,1.7,1.41,2.16,2.49l-1.77,1.17c-.32-.94-.85-1.62-1.59-2.04-.74-.42-1.52-.63-2.34-.63-.7,0-1.31,.11-1.83,.33-.52,.2-.92,.49-1.2,.87-.26,.36-.39,.78-.39,1.26s.15,.89,.45,1.29c.32,.4,.89,.69,1.71,.87l3.51,.78c1.34,.3,2.28,.76,2.82,1.38,.54,.62,.81,1.4,.81,2.34,0,1.4-.53,2.52-1.59,3.36-1.04,.82-2.41,1.23-4.11,1.23Zm16.02,0c-1.36,0-2.57-.31-3.63-.93-1.04-.62-1.86-1.51-2.46-2.67-.6-1.18-.9-2.58-.9-4.2s.29-3.01,.87-4.17c.6-1.18,1.41-2.08,2.43-2.7,1.04-.62,2.22-.93,3.54-.93s2.48,.3,3.42,.9c.94,.6,1.66,1.42,2.16,2.46,.5,1.04,.75,2.22,.75,3.54,0,.32-.01,.6-.03,.84-.02,.24-.04,.45-.06,.63h-11.67v-1.92h10.71l-1.11,.24c0-1.02-.18-1.88-.54-2.58-.34-.72-.83-1.27-1.47-1.65-.62-.38-1.35-.57-2.19-.57-.96,0-1.8,.24-2.52,.72-.7,.48-1.24,1.16-1.62,2.04-.38,.88-.57,1.93-.57,3.15s.2,2.27,.6,3.15c.4,.88,.96,1.56,1.68,2.04,.74,.48,1.6,.72,2.58,.72,1.04,0,1.9-.22,2.58-.66,.7-.46,1.25-1.06,1.65-1.8l1.71,.99c-.36,.68-.83,1.28-1.41,1.8-.56,.5-1.22,.89-1.98,1.17-.76,.26-1.6,.39-2.52,.39Zm15.68,0c-1.4,0-2.68-.31-3.84-.93-1.16-.62-2.04-1.5-2.64-2.64l1.8-1.32c.4,.96,1.01,1.7,1.83,2.22,.84,.52,1.84,.78,3,.78,1.04,0,1.86-.22,2.46-.66,.62-.44,.93-1.02,.93-1.74,0-.46-.14-.87-.42-1.23-.28-.38-.81-.66-1.59-.84l-3.36-.75c-1.4-.32-2.4-.82-3-1.5-.6-.68-.9-1.53-.9-2.55,0-.8,.22-1.53,.66-2.19,.46-.68,1.11-1.22,1.95-1.62,.84-.42,1.82-.63,2.94-.63,1.4,0,2.58,.3,3.54,.9,.98,.58,1.7,1.41,2.16,2.49l-1.77,1.17c-.32-.94-.85-1.62-1.59-2.04-.74-.42-1.52-.63-2.34-.63-.7,0-1.31,.11-1.83,.33-.52,.2-.92,.49-1.2,.87-.26,.36-.39,.78-.39,1.26s.15,.89,.45,1.29c.32,.4,.89,.69,1.71,.87l3.51,.78c1.34,.3,2.28,.76,2.82,1.38,.54,.62,.81,1.4,.81,2.34,0,1.4-.53,2.52-1.59,3.36-1.04,.82-2.41,1.23-4.11,1.23Zm15.09,0c-1.4,0-2.68-.31-3.84-.93-1.16-.62-2.04-1.5-2.64-2.64l1.8-1.32c.4,.96,1.01,1.7,1.83,2.22,.84,.52,1.84,.78,3,.78,1.04,0,1.86-.22,2.46-.66,.62-.44,.93-1.02,.93-1.74,0-.46-.14-.87-.42-1.23-.28-.38-.81-.66-1.59-.84l-3.36-.75c-1.4-.32-2.4-.82-3-1.5-.6-.68-.9-1.53-.9-2.55,0-.8,.22-1.53,.66-2.19,.46-.68,1.11-1.22,1.95-1.62,.84-.42,1.82-.63,2.94-.63,1.4,0,2.58,.3,3.54,.9,.98,.58,1.7,1.41,2.16,2.49l-1.77,1.17c-.32-.94-.85-1.62-1.59-2.04-.74-.42-1.52-.63-2.34-.63-.7,0-1.31,.11-1.83,.33-.52,.2-.92,.49-1.2,.87-.26,.36-.39,.78-.39,1.26s.15,.89,.45,1.29c.32,.4,.89,.69,1.71,.87l3.51,.78c1.34,.3,2.28,.76,2.82,1.38,.54,.62,.81,1.4,.81,2.34,0,1.4-.53,2.52-1.59,3.36-1.04,.82-2.41,1.23-4.11,1.23Zm10.08-.3v-15h1.89l.15,2.55c.5-.96,1.19-1.67,2.07-2.13,.88-.48,1.81-.72,2.79-.72,1.08,0,2.08,.26,3,.78,.92,.5,1.6,1.28,2.04,2.34,.3-.7,.73-1.28,1.29-1.74,.58-.46,1.22-.8,1.92-1.02,.7-.24,1.38-.36,2.04-.36,.96,0,1.86,.2,2.7,.6s1.52,1.02,2.04,1.86c.54,.84,.81,1.91,.81,3.21v9.63h-2.16v-9.42c0-1.4-.35-2.41-1.05-3.03-.7-.64-1.56-.96-2.58-.96-.8,0-1.54,.2-2.22,.6-.68,.4-1.23,.98-1.65,1.74-.42,.76-.63,1.67-.63,2.73v8.34h-2.16v-9.42c0-1.4-.35-2.41-1.05-3.03-.7-.64-1.56-.96-2.58-.96-.68,0-1.37,.19-2.07,.57-.7,.36-1.28,.93-1.74,1.71-.46,.78-.69,1.78-.69,3v8.13h-2.16Zm34.04,.3c-1.36,0-2.57-.31-3.63-.93-1.04-.62-1.86-1.51-2.46-2.67-.6-1.18-.9-2.58-.9-4.2s.29-3.01,.87-4.17c.6-1.18,1.41-2.08,2.43-2.7,1.04-.62,2.22-.93,3.54-.93s2.48,.3,3.42,.9,1.66,1.42,2.16,2.46c.5,1.04,.75,2.22,.75,3.54,0,.32,0,.6-.03,.84-.02,.24-.04,.45-.06,.63h-11.67v-1.92h10.71l-1.11,.24c0-1.02-.18-1.88-.54-2.58-.34-.72-.83-1.27-1.47-1.65-.62-.38-1.35-.57-2.19-.57-.96,0-1.8,.24-2.52,.72-.7,.48-1.24,1.16-1.62,2.04s-.57,1.93-.57,3.15,.2,2.27,.6,3.15c.4,.88,.96,1.56,1.68,2.04,.74,.48,1.6,.72,2.58,.72,1.04,0,1.9-.22,2.58-.66,.7-.46,1.25-1.06,1.65-1.8l1.71,.99c-.36,.68-.83,1.28-1.41,1.8-.56,.5-1.22,.89-1.98,1.17-.76,.26-1.6,.39-2.52,.39Zm10.67-.3v-15h1.89l.18,3.45-.33-.3c.42-1.2,1.11-2.07,2.07-2.61,.96-.56,2.02-.84,3.18-.84,1.02,0,1.94,.21,2.76,.63,.84,.42,1.51,1.05,2.01,1.89,.5,.82,.75,1.87,.75,3.15v9.63h-2.16v-8.88c0-1.66-.35-2.83-1.05-3.51-.7-.68-1.57-1.02-2.61-1.02-.72,0-1.43,.18-2.13,.54-.7,.36-1.28,.93-1.74,1.71-.44,.78-.66,1.8-.66,3.06v8.1h-2.16Zm20.73-19.23v15.12c0,.8,.2,1.4,.6,1.8,.4,.4,.93,.6,1.59,.6,.56,0,1.03-.1,1.41-.3,.4-.2,.76-.47,1.08-.81l.72,1.8c-.44,.42-.95,.75-1.53,.99-.58,.22-1.24,.33-1.98,.33-1.12,0-2.08-.31-2.88-.93-.78-.62-1.17-1.65-1.17-3.09v-14.91l2.16-.6Zm5.16,4.23v1.86h-10.14v-1.86h10.14Z"/>
    <path d="M88.67,49.96c-2.29,0-4.35-.56-6.16-1.68-1.81-1.15-3.24-2.8-4.28-4.96-1.04-2.16-1.56-4.77-1.56-7.84s.52-5.68,1.56-7.84,2.47-3.8,4.28-4.92c1.81-1.15,3.87-1.72,6.16-1.72s4.37,.57,6.16,1.72c1.81,1.12,3.24,2.76,4.28,4.92s1.56,4.77,1.56,7.84-.52,5.68-1.56,7.84c-1.04,2.16-2.47,3.81-4.28,4.96-1.79,1.12-3.84,1.68-6.16,1.68Zm0-5.48c1.09,0,2.04-.31,2.84-.92,.83-.61,1.47-1.59,1.92-2.92,.48-1.33,.72-3.05,.72-5.16s-.24-3.83-.72-5.16c-.45-1.33-1.09-2.31-1.92-2.92-.8-.61-1.75-.92-2.84-.92s-2.01,.31-2.84,.92c-.8,.61-1.44,1.59-1.92,2.92-.45,1.33-.68,3.05-.68,5.16s.23,3.83,.68,5.16c.48,1.33,1.12,2.31,1.92,2.92,.83,.61,1.77,.92,2.84,.92Zm14.75,5v-4.2l10.8-10.2c.85-.77,1.48-1.47,1.88-2.08,.4-.61,.67-1.17,.8-1.68,.16-.51,.24-.97,.24-1.4,0-1.12-.39-1.97-1.16-2.56-.75-.61-1.85-.92-3.32-.92-1.17,0-2.27,.23-3.28,.68-.99,.45-1.83,1.16-2.52,2.12l-4.72-3.04c1.07-1.6,2.56-2.87,4.48-3.8,1.92-.93,4.13-1.4,6.64-1.4,2.08,0,3.89,.35,5.44,1.04,1.57,.67,2.79,1.61,3.64,2.84,.88,1.23,1.32,2.69,1.32,4.4,0,.91-.12,1.81-.36,2.72-.21,.88-.67,1.81-1.36,2.8-.67,.99-1.65,2.09-2.96,3.32l-8.96,8.44-1.24-2.36h15.8v5.28h-21.16Z"/>
    <g class="cls-3">
      <g>
        <path class="cls-1" d="M93.85,352.75c-9.68,0-19.37,0-29.05,0-5.05,0-7.69-2.68-7.72-7.79,0-1.05-.03-2.1,.03-3.15,.03-.51,.05-1.29,.36-1.47,2.12-1.25,1.48-3.27,1.49-5.07,.03-12.65,.01-25.3,.02-37.95,0-3.48,.92-4.68,4.26-5.15,1.24-.17,1.27-.79,1.27-1.71-.02-4.79-.02-9.57,0-14.35,.01-3.28,1.26-4.57,4.49-4.58,19.04-.01,38.08-.01,57.11,0,3.4,0,4.57,1.22,4.57,4.65,.01,4.52,.05,9.05-.02,13.57-.02,1.46,.27,2.25,1.94,2.48,2.48,.33,3.6,1.8,3.6,4.34,.03,6.95,.02,13.9,0,20.84,0,1.21,.24,2.28,.83,3.36,3,5.56,3.4,11.34,1.07,17.24-.38,.95-.33,1.76-.2,2.78,.34,2.64,.64,5.38-.46,7.94-.42,.99-.26,1.7,.33,2.52,1.71,2.4,3.38,4.83,5.03,7.27,2.41,3.55,1.61,7.64-1.85,9.66-3.57,2.08-7.41,.83-9.31-3.08-1.61-3.3-3.26-6.58-4.7-9.95-.78-1.82-1.8-2.5-3.83-2.47-9.75,.12-19.5,.05-29.24,.05Zm3.93-68.06c-9.42,0-18.84,.03-28.25-.03-1.63-.01-2.14,.53-2.13,2.15,.05,14.74,.05,29.49,0,44.23,0,1.7,.49,2.28,2.23,2.26,9.09-.07,18.18-.08,27.27,0,1.77,.01,2.18-.6,2.18-2.28,0-14.48,13.1-24.1,26.78-19.66,1.84,.6,1.93-.08,1.92-1.55-.04-7.6-.06-15.2,.02-22.8,.02-1.8-.53-2.37-2.35-2.35-9.22,.08-18.44,.04-27.66,.04h0Zm-.22-2.94c8.5,0,17,.03,25.5-.01,5.42-.03,4.63,.78,4.69-4.65,.03-2.62,0-2.63-2.58-2.63-17.65,0-35.31,0-52.96,0-4.81,0-4.73,0-4.83,4.75-.04,1.95,.5,2.61,2.53,2.59,9.22-.1,18.44-.04,27.66-.04h0Zm6.01,61.75c-1.25-1.92-2.42-3.46-2.96-5.27-.52-1.73-1.55-2.08-3.21-2.07-9.88,.07-19.76,.04-29.64,.03-2.96,0-3.27-.31-3.27-3.26,0-11.67,0-23.34,0-35.01,0-.59,0-1.18-.02-1.77-.01-.55-.1-1.07-.78-1.17-.71-.1-1.37,.06-1.63,.77-.19,.54-.2,1.16-.2,1.74-.01,13.24,.02,26.48-.04,39.72,0,1.83,.6,2.35,2.38,2.33,7.46-.09,14.92-.02,22.38-.05,1.54,0,2.52,.38,2.55,2.16,.02,1.12,.68,1.82,1.88,1.83,4.05,0,8.1,0,12.56,0h0Zm8.47,6.32c-1.76-1.14-3.53-1.98-5.08-3.21-.37-.29-.76-.43-1.27-.38-4.76,.47-9.53,.1-14.3,.22-2.19,.06-3.82-.86-4.73-2.85-.39-.85-.9-1.17-1.79-1.17-7.72,.01-15.43,0-23.15,.01-.57,0-1.19-.07-1.57,.56-1.55,2.59,.61,6.72,3.64,6.79,3.72,.08,7.45,.03,11.18,.03,12.35,0,24.71,0,37.06,0h0Zm7.02-1.94c9.65,.07,17.55-7.55,17.66-17.04,.11-9.67-7.63-17.69-17.19-17.8-9.63-.11-17.53,7.68-17.58,17.34-.05,9.75,7.45,17.43,17.11,17.5h0Zm17.92,18.4c3.52-.03,5.32-3.1,3.78-5.58-1.52-2.44-3.19-4.8-4.87-7.14-2.31-3.22-1.38-3.37-5.39-1.1-.98,.55-1.28,1.05-.73,2.15,1.58,3.16,3.04,6.38,4.55,9.58,.65,1.37,1.74,2.08,2.65,2.09h0Zm-3.66-60.85h0c0-2.88,0-5.77,0-8.65,0-1.04-.37-1.81-1.58-1.8-1.22,.01-1.04,.96-1.04,1.71-.01,5.18,.01,10.35-.02,15.53,0,1.01,.3,1.78,1.13,2.35,.36,.25,.65,.77,1.16,.54,.52-.23,.35-.8,.35-1.23,.02-2.82,0-5.63,0-8.45h0Z"/>
        <path class="cls-1" d="M114.74,297.5c-.82-.13-1.19-.18-1.55-.26-.64-.14-1.07-.54-1.1-1.2-.04-.77,.4-1.26,1.12-1.39,1.88-.34,3.78-.38,5.65,.02,1.15,.24,1.33,1.24,1.19,2.18-.27,1.86,.93,4.03-.89,5.54-.74,.62-1.44-.02-1.83-.84-.28-.59,.06-1.31-.57-2.01-3.01,2.71-6.01,5.41-9.02,8.11-.56,.51-.49,1.11-.43,1.8,.26,2.88-1.66,5.09-4.38,5.13-2.77,.05-4.85-2.07-4.61-4.92,.09-1.14-.16-1.87-1.07-2.49-.54-.36-1.13-.76-1.47-1.29-1.88-2.9-4.9-1.57-7.42-2.05-.31-.06-.77,.43-1.11,.73-2.81,2.56-5.59,5.14-8.41,7.68-.85,.76-1.19,1.51-1.01,2.73,.38,2.59-1.77,4.97-4.32,5.05-2.54,.09-4.81-2.22-4.69-4.77,.12-2.57,2.55-4.72,5.1-4.26,1.34,.24,2.22-.08,3.15-.97,2.61-2.48,5.28-4.9,7.96-7.3,.84-.75,1.21-1.49,1.1-2.71-.27-2.78,1.71-4.93,4.34-4.97,2.66-.05,4.74,2,4.57,4.77-.07,1.21,.25,2,1.14,2.7,.82,.65,1.66,1.29,2.38,2.05,1.03,1.08,2.24,1,3.59,1.23,3.31,.56,5.01-1.48,7-3.28,1.74-1.58,3.49-3.15,5.59-5.05h0Z"/>
        <path class="cls-1" d="M105.42,279.57c-5.03,0-10.07,0-15.1,0-.59,0-1.19,0-1.75-.12-.69-.16-1.17-.64-1.14-1.4,.03-.66,.47-1.11,1.09-1.23,.7-.13,1.42-.17,2.14-.17,9.74,0,19.48-.02,29.23,0,1.24,0,3.08-.4,3.11,1.43,.03,1.88-1.82,1.46-3.06,1.47-4.84,.04-9.68,.02-14.51,.01h0Z"/>
        <path class="cls-1" d="M134.63,330.64c-.02,8.45-7.03,15.43-15.41,15.35-8.33-.08-15.35-7.15-15.38-15.51-.04-8.48,6.99-15.38,15.63-15.35,8.48,.03,15.18,6.88,15.17,15.51Zm-16.74-5.87h0c0-1.64-.04-3.27,.01-4.91,.04-1.38-.34-1.9-1.84-1.5-4.85,1.31-8.46,5.39-9.24,10.61-.67,4.56,1.82,9.74,5.89,12.24,4.29,2.63,9.86,2.42,13.88-.45,.94-.67,1.08-1.3,.54-2.29-.85-1.55-1.59-3.15-2.37-4.73-.74-1.49-.23-2.4,1.33-2.73,1.21-.26,2.47-.35,3.65-.68,.64-.18,1.97,.1,1.71-1.02-.22-.93-1.26-.2-1.86-.06-3.11,.76-6.19,1.61-9.28,2.45-1.6,.43-2.39-.2-2.42-1.82-.02-1.7,0-3.4,0-5.1h0Zm4.02-6.56c-1-.05-1.11,.6-1.11,1.3,0,2.56,0,5.11,0,7.67,0,.93,.36,1.32,1.34,1.05,2.52-.7,5.05-1.36,7.58-2.02,.68-.18,1.01-.43,.8-1.23-.65-2.55-6.08-6.82-8.61-6.77h0Z"/>
      </g>
    </g>
  </g>
</svg>