<?xml version="1.0" encoding="UTF-8"?>
<svg id="Layer_2" data-name="Layer 2" xmlns="http://www.w3.org/2000/svg" viewBox="0 0 201.24 416.23">
  <defs>
    <style>
      .cls-1 {
        fill: #fff;
      }

      .cls-2 {
        fill: #387ef0;
      }
    </style>
  </defs>
  <g id="Layer_1-2" data-name="Layer 1">
    <path class="cls-2" d="M180.12,313.26c0,43.91-35.59,79.5-79.5,79.5s-79.5-35.59-79.5-79.5,35.59-79.5,79.5-79.5,79.5,35.59,79.5,79.5Z"/>
    <path d="M201.23,58.05c0-17.88-5.37-23.18-23.45-23.2-11.64,0-23.29-.14-34.93,.08-4.34,.08-6.36-1.25-7.35-5.76C131.52,11.16,118.01,.03,100.76,0c-17.42-.05-30.61,10.78-34.81,29.03-1,4.34-2.86,5.98-7.32,5.9-12.45-.23-24.89-.11-37.35-.08C6.22,34.89,0,41.08,0,56.08v254.81c0,7.05,.68,14.04,1.91,20.95,8.2,46.5,48.88,88.87,107.44,84,26.31-2.19,48.54-13.3,66-33.37,18.1-20.81,25.88-45.36,25.89-72.64,0-41.56,0-83.13,0-124.69V58.05h0ZM100.86,4.01c16.68-.2,31.42,14.74,31.32,31.73-.11,16.79-14.27,30.61-31.42,30.65-17.46,.03-31.85-14.06-31.67-31.03,.19-17.07,14.45-31.14,31.77-31.34Zm96.33,301.18c-.03,20.07-3.11,39.42-12.83,57.52-29.02,54.02-104.51,66.35-148.53,23.75-20.24-19.59-31.07-43.55-31.06-72.03,0-42.36,0-84.73,0-127.08,0-43.97,0-87.93,0-131.9,0-12.41,4.15-16.52,16.68-16.55,12.45-.03,24.89,.13,37.34-.07,4.45-.07,6.69,1.04,7.89,5.91,3.79,15.37,18.14,26.01,34.25,26.2,14.88,.19,29.14-9.99,33.3-24.92,1.67-5.99,4.54-7.36,10.12-7.22,12.24,.33,24.48,.04,36.73,.12,10.98,.07,15.92,4.78,16.1,15.73,.2,13.04,.07,26.09,.07,39.14,0,70.46,.06,140.93-.04,211.4Z"/>
    <path d="M54.65,124.93h10.95v2.01h-13.11v-19.8h2.16v17.79Zm22.61-7.74c0-1.14-.3-2.03-.9-2.67-.6-.66-1.45-.99-2.55-.99-1,0-1.85,.24-2.55,.72-.7,.46-1.22,1.2-1.56,2.22l-1.77-1.08c.4-1.14,1.11-2.05,2.13-2.73,1.04-.68,2.31-1.02,3.81-1.02,1.06,0,2,.19,2.82,.57,.84,.36,1.5,.92,1.98,1.68,.5,.76,.75,1.72,.75,2.88v7.32c0,.82,.38,1.23,1.14,1.23,.16,0,.34-.01,.54-.03,.2-.04,.37-.09,.51-.15l-.12,1.71c-.16,.08-.37,.15-.63,.21-.24,.06-.52,.09-.84,.09-.52,0-1-.1-1.44-.3-.42-.22-.76-.55-1.02-.99-.24-.46-.36-1.03-.36-1.71v-.42l.54,.06c-.22,.78-.61,1.43-1.17,1.95-.54,.5-1.17,.88-1.89,1.14-.7,.24-1.41,.36-2.13,.36-1.3,0-2.41-.33-3.33-.99-.92-.68-1.38-1.69-1.38-3.03,0-1.08,.34-1.98,1.02-2.7,.7-.74,1.72-1.25,3.06-1.53l5.73-1.2v1.8l-4.71,1.02c-.98,.2-1.71,.49-2.19,.87-.48,.38-.72,.92-.72,1.62s.24,1.23,.72,1.65c.5,.4,1.21,.6,2.13,.6,.54,0,1.07-.07,1.59-.21,.52-.16,.99-.4,1.41-.72,.42-.32,.75-.72,.99-1.2,.26-.5,.39-1.09,.39-1.77v-4.26Zm12.37,10.05c-.94,0-1.81-.18-2.61-.54-.8-.38-1.45-.97-1.95-1.77-.48-.8-.72-1.84-.72-3.12v-9.87h2.16v9.3c0,1.38,.29,2.41,.87,3.09,.58,.68,1.51,1.02,2.79,1.02,.58,0,1.13-.11,1.65-.33,.54-.22,1.01-.54,1.41-.96,.42-.44,.75-.98,.99-1.62,.24-.64,.36-1.38,.36-2.22v-8.28h2.16v15h-1.89l-.12-2.49c-.32,.62-.73,1.14-1.23,1.56-.48,.42-1.05,.73-1.71,.93-.64,.2-1.36,.3-2.16,.3Zm12.62-.3v-15h1.89l.18,3.45-.33-.3c.42-1.2,1.11-2.07,2.07-2.61,.96-.56,2.02-.84,3.18-.84,1.02,0,1.94,.21,2.76,.63,.84,.42,1.51,1.05,2.01,1.89,.5,.82,.75,1.87,.75,3.15v9.63h-2.16v-8.88c0-1.66-.35-2.83-1.05-3.51-.7-.68-1.57-1.02-2.61-1.02-.72,0-1.43,.18-2.13,.54-.7,.36-1.28,.93-1.74,1.71-.44,.78-.66,1.8-.66,3.06v8.1h-2.16Zm23.72-15.3c1,0,1.88,.17,2.64,.51,.78,.32,1.44,.78,1.98,1.38,.54,.58,.97,1.28,1.29,2.1l-2.04,.99c-.28-1-.75-1.76-1.41-2.28-.66-.54-1.5-.81-2.52-.81-.96,0-1.8,.24-2.52,.72-.7,.46-1.24,1.13-1.62,2.01-.38,.88-.57,1.94-.57,3.18s.19,2.28,.57,3.18c.4,.88,.95,1.56,1.65,2.04,.72,.46,1.56,.69,2.52,.69,.76,0,1.42-.12,1.98-.36,.56-.26,1.02-.63,1.38-1.11s.61-1.06,.75-1.74l1.98,.69c-.3,.92-.73,1.71-1.29,2.37-.56,.66-1.25,1.17-2.07,1.53-.8,.34-1.71,.51-2.73,.51-1.34,0-2.53-.31-3.57-.93-1.04-.62-1.86-1.51-2.46-2.67-.58-1.18-.87-2.58-.87-4.2s.3-3.01,.9-4.17c.6-1.18,1.42-2.08,2.46-2.7,1.04-.62,2.23-.93,3.57-.93Zm10.26,15.3v-21.9h2.16v9.36c.48-.94,1.14-1.63,1.98-2.07,.86-.46,1.81-.69,2.85-.69s1.94,.21,2.76,.63c.84,.4,1.51,1.02,2.01,1.86s.75,1.9,.75,3.18v9.63h-2.16v-8.91c0-1.66-.35-2.82-1.05-3.48-.7-.68-1.57-1.02-2.61-1.02-.72,0-1.43,.18-2.13,.54s-1.28,.93-1.74,1.71c-.44,.78-.66,1.8-.66,3.06v8.1h-2.16Z"/>
    <path d="M87.49,51.07c-2.29,0-4.35-.56-6.16-1.68-1.81-1.15-3.24-2.8-4.28-4.96s-1.56-4.77-1.56-7.84,.52-5.68,1.56-7.84c1.04-2.16,2.47-3.8,4.28-4.92,1.81-1.15,3.87-1.72,6.16-1.72s4.37,.57,6.16,1.72c1.81,1.12,3.24,2.76,4.28,4.92,1.04,2.16,1.56,4.77,1.56,7.84s-.52,5.68-1.56,7.84c-1.04,2.16-2.47,3.81-4.28,4.96-1.79,1.12-3.84,1.68-6.16,1.68Zm0-5.48c1.09,0,2.04-.31,2.84-.92,.83-.61,1.47-1.59,1.92-2.92,.48-1.33,.72-3.05,.72-5.16s-.24-3.83-.72-5.16c-.45-1.33-1.09-2.31-1.92-2.92-.8-.61-1.75-.92-2.84-.92s-2.01,.31-2.84,.92c-.8,.61-1.44,1.59-1.92,2.92-.45,1.33-.68,3.05-.68,5.16s.23,3.83,.68,5.16c.48,1.33,1.12,2.31,1.92,2.92,.83,.61,1.77,.92,2.84,.92Zm27.67,5.48c-2.56,0-4.79-.53-6.68-1.6-1.87-1.07-3.31-2.63-4.32-4.68-1.01-2.05-1.52-4.59-1.52-7.6,0-3.23,.6-5.96,1.8-8.2,1.23-2.24,2.91-3.95,5.04-5.12,2.16-1.17,4.64-1.76,7.44-1.76,1.49,0,2.92,.16,4.28,.48,1.36,.32,2.53,.8,3.52,1.44l-2.4,4.76c-.77-.53-1.6-.89-2.48-1.08-.88-.21-1.8-.32-2.76-.32-2.43,0-4.35,.73-5.76,2.2-1.41,1.47-2.12,3.64-2.12,6.52v1.6c.03,.59,.11,1.17,.24,1.76l-1.8-1.68c.51-1.04,1.16-1.91,1.96-2.6,.8-.72,1.75-1.25,2.84-1.6,1.12-.37,2.35-.56,3.68-.56,1.81,0,3.44,.36,4.88,1.08,1.44,.72,2.59,1.73,3.44,3.04,.88,1.31,1.32,2.84,1.32,4.6,0,1.89-.48,3.55-1.44,4.96-.93,1.39-2.2,2.47-3.8,3.24-1.57,.75-3.36,1.12-5.36,1.12Zm-.36-4.84c.91,0,1.71-.16,2.4-.48,.72-.35,1.28-.84,1.68-1.48,.4-.64,.6-1.37,.6-2.2,0-1.28-.44-2.29-1.32-3.04-.85-.77-2-1.16-3.44-1.16-.96,0-1.8,.19-2.52,.56-.72,.35-1.29,.84-1.72,1.48-.4,.61-.6,1.33-.6,2.16s.2,1.52,.6,2.16c.4,.61,.96,1.11,1.68,1.48,.72,.35,1.6,.52,2.64,.52Z"/>
    <g>
      <path class="cls-1" d="M105.94,347.62c-7.7,0-15.39,.02-23.09-.02-1.19,0-2.97,.42-3.04-1.42-.08-2.02,1.78-1.78,3.09-1.78,14.7-.04,29.41-.02,44.11-.03,4.22,0,4.33-.11,4.34-4.31,0-12.24-.02-24.47,.04-36.71,0-1.56-.61-4.09,1.58-4.17,2.46-.09,1.6,2.49,1.61,3.97,.07,12.63,.05,25.26,.04,37.89,0,5.12-1.42,6.56-6.45,6.57-7.4,.01-14.8,0-22.2,0Z"/>
      <path class="cls-1" d="M81.39,292.09c2.61,0,5.15-.04,7.69,.01,1.68,.03,2.15-1.09,2.52-2.38,2.29-7.97,2.24-7.01,10.1-7.05,4.93-.03,9.86-.02,14.79,.01,1.23,0,2.97-.24,3.01,1.53,.05,2.01-1.8,1.73-3.11,1.74-5.72,.04-11.44,.11-17.16-.02-2.25-.05-3.56,.61-3.95,2.9-.15,.87-.61,1.67-.78,2.54-.59,2.94-2.45,4.03-5.31,4-6.71-.05-13.41-.02-20.12,0-4.44,0-4.51,.09-4.54,4.42-.01,1.28,0,2.57-.14,3.84-.1,.93-.59,1.75-1.7,1.66-.95-.08-1.32-.84-1.33-1.68-.02-2.56-.24-5.16,.13-7.67,.37-2.56,2.3-3.79,4.89-3.8,3.65-.02,7.3,0,10.95-.02,.84,0,1.41,.24,1.45-1.31,.14-5.41,6.81-9.03,11.78-6.64,.66,.32,1.18,.75,1.08,1.57-.08,.65-.52,1.11-1.11,1.24-.76,.16-1.58,.29-2.34,.18-3.6-.54-5.92,.8-6.78,4.94Z"/>
      <path class="cls-1" d="M82.2,310.85c-4.84,0-9.67,.07-14.51-.03-2.28-.04-3.22,.86-3.18,3.13,.07,4.74,.02,9.47,0,14.21,0,.79-.04,1.58-.17,2.35-.14,.82-.56,1.53-1.53,1.52-.96,0-1.45-.68-1.45-1.54,0-6.41-.23-12.84,.18-19.22,.18-2.85,2.88-3.71,5.6-3.71,9.18,0,18.36-.12,27.53,.07,2.88,.06,4.2-1.01,5.23-3.56,2.85-7.08,2.95-7.05,10.53-7.04,2.17,0,4.34,0,6.51,.09,.94,.03,1.87,.43,1.92,1.49,.06,1.28-.96,1.6-2.03,1.61-3.06,.03-6.12,.1-9.18,.02-1.83-.05-2.85,.66-3.62,2.34-4.24,9.23-1.8,8.23-12.96,8.28-2.96,.01-5.92,0-8.88,0h0Z"/>
      <path class="cls-1" d="M126.39,282.63c.67,.13,1.66,.22,2.59,.52,2.96,.93,3.82,3.21,2.03,5.72-.97,1.35-2.27,2.46-3.41,3.68-.61,.65-1.28,1.24-1.8,1.96-.86,1.18-2.18,2.71-.95,3.93,1.29,1.28,2.51-.48,3.42-1.3,3-2.69,5.86-5.46,9.56-7.33,2.52-1.27,3.29-4.33,4.91-6.54,.98-1.34,1.66-4.26,3.95-2.74,2.06,1.36-.42,2.87-1.1,4.19-2.23,4.38-5.12,7.99-9.85,10.18-2.57,1.19-4.41,3.88-6.71,5.72-1.91,1.53-4.16,2.73-6.4,.72-2.17-1.94-1.8-4.42-.69-6.82,1.07-2.3,3.05-3.84,4.76-5.61,.59-.61,1.57-1.16,1.24-2.18-.29-.91-1.31-.67-2.06-.8-1.24-.22-2.89-.19-2.68-2,.19-1.62,1.74-1.21,3.19-1.31h0Z"/>
      <path class="cls-1" d="M141.9,257.86c1.46-.02,2.34,.61,3.1,1.41,3.81,4,7.61,8.01,11.38,12.04,1.71,1.82,1.62,3.62-.07,5.49-4.96,5.51-5.99,5.56-11.12,.19-2.86-3-5.71-6-8.51-9.06-2.45-2.67-2.41-3.91,.26-6.46,1.54-1.47,2.83-3.36,4.95-3.61Zm.08,3.56c-1.31,.6-2.32,1.71-3.18,2.87-.75,1.01,.38,1.59,.94,2.18,3.09,3.32,6.28,6.55,9.3,9.93,1.36,1.52,2.24,1.01,3.31-.19,1-1.13,2.63-1.91,.76-3.77-3.22-3.19-6.25-6.57-9.37-9.85-.46-.49-.85-1.11-1.74-1.16h0Z"/>
      <path class="cls-1" d="M82.94,335.67c-.1,1.54-.86,3.04-1.8,4.43-2.2,3.25-4.29,6.5-5.78,10.22-1.63,4.06-5.9,5.92-8.96,8.79-.53,.5-1.32,.4-1.88-.18-.68-.7-.5-1.47,0-2.15,1.18-1.61,2.84-2.72,4.39-3.92,2.17-1.67,3.8-3.61,4.49-6.36,.82-3.24,3.63-5.36,5.04-8.28,.47-.98,1.85-2.14,.67-3.12-1.21-1.01-2.47,.23-3.29,1.1-1.74,1.86-3.22,3.97-4.93,5.87-1.17,1.3-2.66,2.12-4.48,1.28-.95-.44-1.62-1.21-1.38-2.35,.22-1.07,1.02-1.39,2.02-1.15,1.94,.47,2.57-1.12,3.41-2.24,1.53-2.06,2.95-4.22,5.35-5.39,3.48-1.71,7.05-.06,7.12,3.45h0Z"/>
      <path class="cls-1" d="M115.75,340.37c-1.57,0-3.15,.06-4.72-.01-3.38-.15-4.58-1.53-4.56-5.12,.02-3.55,1.23-4.91,4.69-5,3.24-.08,6.49-.08,9.73,0,3.55,.09,4.76,1.52,4.7,5.27-.06,3.49-1.28,4.74-4.83,4.85-1.67,.05-3.34,0-5.01,0h0Zm.1-3.27h0c1.57,.01,3.14,0,4.71,.01,1.23,0,1.75-.59,1.76-1.82,0-1.26-.6-1.8-1.78-1.81-3.05-.01-6.09-.03-9.13,0-1.04,0-1.61,.59-1.64,1.67-.04,1.17,.42,1.91,1.66,1.94,1.47,.03,2.95,0,4.42,0h0Z"/>
      <path class="cls-1" d="M85.08,301.25c-3.64,0-7.28,.05-10.92-.02-1.85-.03-3.09,.36-2.97,2.57,.06,1.06-.32,2.08-1.6,2.01-1.05-.06-1.31-1.02-1.49-1.93-.75-3.75,.87-6.05,4.7-6.1,7.96-.11,15.93-.06,23.9,0,1.2,0,2.95-.11,2.99,1.63,.04,1.97-1.79,1.78-3.1,1.8-3.83,.07-7.67,.02-11.51,.02v.02h0Z"/>
      <path class="cls-1" d="M49.75,350.64c.45,.21,1.11,.44,1.68,.8,4.01,2.51,7.99,5.05,11.99,7.58,1.42,.9,2.62,2.06,2.08,3.84-.66,2.16-1.7,4.21-3.58,5.62-.54,.4-1.14,.1-1.56-.38-.52-.59-.43-1.25-.19-1.94,.46-1.37,2.22-2.47,1.53-3.96-.75-1.63-2.76-2.12-4.21-3.11-2.03-1.39-4.2-2.58-6.21-4-1.56-1.1-2.52-.97-3.51,.76-.69,1.2-1.31,3.62-3.24,2.42-2.08-1.3,0-2.95,.65-4.3,.86-1.79,1.93-3.51,4.58-3.33Z"/>
      <path class="cls-1" d="M137.19,269.76c-.18,1.46-.93,2.43-1.88,3.09-1.85,1.28-3.78,2.47-5.75,3.55-2.77,1.52-5.41,3.19-7.73,5.35-.78,.72-1.7,1.25-2.57,.3-.84-.91-.3-1.84,.41-2.61,1.69-1.82,3.78-3.11,5.84-4.45,3.03-1.97,6.61-3.09,9.07-5.95,.49-.57,1.21-.74,1.86-.29,.36,.25,.57,.73,.76,1h0Z"/>
      <path class="cls-1" d="M59.58,334.63c1.27,.27,1.72,1.1,1.27,2.19-1.65,3.99-3.36,7.97-5.15,11.9-.35,.76-1.11,1.37-1.78,1.93-.66,.55-1.45,.61-2.12-.07-.57-.59-.54-1.32-.07-1.88,2.87-3.43,3.41-7.93,5.47-11.72,.56-1.02,.97-2.2,2.38-2.35h0Z"/>
      <path class="cls-1" d="M115.95,322.1c-1.86,0-3.73,.02-5.59,0-.97-.02-1.81-.4-1.85-1.48-.04-1.08,.82-1.61,1.74-1.62,3.82-.07,7.64-.06,11.46-.02,.93,.01,1.84,.49,1.86,1.53,.03,1.24-.96,1.59-2.03,1.61-1.86,.02-3.73,0-5.59,0h0s0-.01,0-.01Z"/>
      <path class="cls-1" d="M115.9,327.9c-1.86,0-3.73,.05-5.59-.02-.95-.03-1.8-.52-1.81-1.57-.01-1.06,.81-1.54,1.79-1.55,3.83-.03,7.65-.03,11.47,0,.97,0,1.81,.45,1.81,1.52s-.85,1.55-1.79,1.59c-1.96,.07-3.92,.02-5.88,.03h0Z"/>
    </g>
  </g>
</svg>